%
M48
M72
T01C0.0138
T02C0.0315
T03C0.0320
T04C0.0400
T05C0.0440
T06C0.0787
T07C0.1300
T08C1.3780
%
T01
X87797Y15553
X93506Y17324
X94096Y20080
X91340Y21065
X93899Y23624
X92915Y26773
X90946Y30120
X89175Y31104
X92521Y12994
X89372Y9057
T02
X30293Y14793
X30293Y15793
X28293Y15293
X27293Y15293
X26293Y15293
X24293Y15793
X24293Y14793
X26293Y14293
X27293Y14293
X28293Y14293
X30293Y16793
X30293Y17793
X30293Y18793
X30293Y19793
X30293Y20793
X30293Y21793
X30293Y22793
X30293Y23793
X30293Y24793
X30293Y25793
X30293Y26793
X30293Y27793
X30293Y28793
X24293Y28793
X24293Y27793
X24293Y26793
X24293Y25793
X24293Y24793
X24293Y23793
X24293Y22793
X24293Y21793
X24293Y20793
X24293Y19793
X24293Y18793
X24293Y17793
X24293Y16793
T03
X25864Y12754
X25864Y11754
X25864Y10754
X25864Y9754
X25864Y8754
X25864Y7754
X25864Y6754
X25864Y5754
X28864Y5754
X28864Y6754
X28864Y7754
X28864Y8754
X28864Y9754
X28864Y10754
X28864Y11754
X28864Y12754
T04
X31301Y9844
X31301Y8844
X23458Y5710
X22458Y5710
X21458Y5710
X23033Y8860
X23033Y9860
X22852Y30513
X21852Y30513
X23230Y32876
X24230Y32876
X24624Y35419
X22624Y35419
T05
X27576Y34309
X27576Y33309
X27576Y32309
T06
X6104Y3348
X13191Y3348
X13191Y36419
X6104Y36419
X98624Y27561
X98624Y12206
T07
X34476Y33309
T08
X10238Y19883
M30
