G75*
%MOIN*%
%OFA0B0*%
%FSLAX25Y25*%
%IPPOS*%
%LPD*%
%AMOC8*
5,1,8,0,0,1.08239X$1,22.5*
%
%ADD10C,0.00000*%
%ADD11C,0.00400*%
%ADD12C,0.00500*%
%ADD13C,0.00800*%
%ADD14C,0.02000*%
D10*
X0057102Y0033480D02*
X0057104Y0033605D01*
X0057110Y0033730D01*
X0057120Y0033854D01*
X0057134Y0033978D01*
X0057151Y0034102D01*
X0057173Y0034225D01*
X0057199Y0034347D01*
X0057228Y0034469D01*
X0057261Y0034589D01*
X0057299Y0034708D01*
X0057339Y0034827D01*
X0057384Y0034943D01*
X0057432Y0035058D01*
X0057484Y0035172D01*
X0057540Y0035284D01*
X0057599Y0035394D01*
X0057661Y0035502D01*
X0057727Y0035609D01*
X0057796Y0035713D01*
X0057869Y0035814D01*
X0057944Y0035914D01*
X0058023Y0036011D01*
X0058105Y0036105D01*
X0058190Y0036197D01*
X0058277Y0036286D01*
X0058368Y0036372D01*
X0058461Y0036455D01*
X0058557Y0036536D01*
X0058655Y0036613D01*
X0058755Y0036687D01*
X0058858Y0036758D01*
X0058963Y0036825D01*
X0059071Y0036890D01*
X0059180Y0036950D01*
X0059291Y0037008D01*
X0059404Y0037061D01*
X0059518Y0037111D01*
X0059634Y0037158D01*
X0059751Y0037200D01*
X0059870Y0037239D01*
X0059990Y0037275D01*
X0060111Y0037306D01*
X0060233Y0037334D01*
X0060355Y0037357D01*
X0060479Y0037377D01*
X0060603Y0037393D01*
X0060727Y0037405D01*
X0060852Y0037413D01*
X0060977Y0037417D01*
X0061101Y0037417D01*
X0061226Y0037413D01*
X0061351Y0037405D01*
X0061475Y0037393D01*
X0061599Y0037377D01*
X0061723Y0037357D01*
X0061845Y0037334D01*
X0061967Y0037306D01*
X0062088Y0037275D01*
X0062208Y0037239D01*
X0062327Y0037200D01*
X0062444Y0037158D01*
X0062560Y0037111D01*
X0062674Y0037061D01*
X0062787Y0037008D01*
X0062898Y0036950D01*
X0063008Y0036890D01*
X0063115Y0036825D01*
X0063220Y0036758D01*
X0063323Y0036687D01*
X0063423Y0036613D01*
X0063521Y0036536D01*
X0063617Y0036455D01*
X0063710Y0036372D01*
X0063801Y0036286D01*
X0063888Y0036197D01*
X0063973Y0036105D01*
X0064055Y0036011D01*
X0064134Y0035914D01*
X0064209Y0035814D01*
X0064282Y0035713D01*
X0064351Y0035609D01*
X0064417Y0035502D01*
X0064479Y0035394D01*
X0064538Y0035284D01*
X0064594Y0035172D01*
X0064646Y0035058D01*
X0064694Y0034943D01*
X0064739Y0034827D01*
X0064779Y0034708D01*
X0064817Y0034589D01*
X0064850Y0034469D01*
X0064879Y0034347D01*
X0064905Y0034225D01*
X0064927Y0034102D01*
X0064944Y0033978D01*
X0064958Y0033854D01*
X0064968Y0033730D01*
X0064974Y0033605D01*
X0064976Y0033480D01*
X0064974Y0033355D01*
X0064968Y0033230D01*
X0064958Y0033106D01*
X0064944Y0032982D01*
X0064927Y0032858D01*
X0064905Y0032735D01*
X0064879Y0032613D01*
X0064850Y0032491D01*
X0064817Y0032371D01*
X0064779Y0032252D01*
X0064739Y0032133D01*
X0064694Y0032017D01*
X0064646Y0031902D01*
X0064594Y0031788D01*
X0064538Y0031676D01*
X0064479Y0031566D01*
X0064417Y0031458D01*
X0064351Y0031351D01*
X0064282Y0031247D01*
X0064209Y0031146D01*
X0064134Y0031046D01*
X0064055Y0030949D01*
X0063973Y0030855D01*
X0063888Y0030763D01*
X0063801Y0030674D01*
X0063710Y0030588D01*
X0063617Y0030505D01*
X0063521Y0030424D01*
X0063423Y0030347D01*
X0063323Y0030273D01*
X0063220Y0030202D01*
X0063115Y0030135D01*
X0063007Y0030070D01*
X0062898Y0030010D01*
X0062787Y0029952D01*
X0062674Y0029899D01*
X0062560Y0029849D01*
X0062444Y0029802D01*
X0062327Y0029760D01*
X0062208Y0029721D01*
X0062088Y0029685D01*
X0061967Y0029654D01*
X0061845Y0029626D01*
X0061723Y0029603D01*
X0061599Y0029583D01*
X0061475Y0029567D01*
X0061351Y0029555D01*
X0061226Y0029547D01*
X0061101Y0029543D01*
X0060977Y0029543D01*
X0060852Y0029547D01*
X0060727Y0029555D01*
X0060603Y0029567D01*
X0060479Y0029583D01*
X0060355Y0029603D01*
X0060233Y0029626D01*
X0060111Y0029654D01*
X0059990Y0029685D01*
X0059870Y0029721D01*
X0059751Y0029760D01*
X0059634Y0029802D01*
X0059518Y0029849D01*
X0059404Y0029899D01*
X0059291Y0029952D01*
X0059180Y0030010D01*
X0059070Y0030070D01*
X0058963Y0030135D01*
X0058858Y0030202D01*
X0058755Y0030273D01*
X0058655Y0030347D01*
X0058557Y0030424D01*
X0058461Y0030505D01*
X0058368Y0030588D01*
X0058277Y0030674D01*
X0058190Y0030763D01*
X0058105Y0030855D01*
X0058023Y0030949D01*
X0057944Y0031046D01*
X0057869Y0031146D01*
X0057796Y0031247D01*
X0057727Y0031351D01*
X0057661Y0031458D01*
X0057599Y0031566D01*
X0057540Y0031676D01*
X0057484Y0031788D01*
X0057432Y0031902D01*
X0057384Y0032017D01*
X0057339Y0032133D01*
X0057299Y0032252D01*
X0057261Y0032371D01*
X0057228Y0032491D01*
X0057199Y0032613D01*
X0057173Y0032735D01*
X0057151Y0032858D01*
X0057134Y0032982D01*
X0057120Y0033106D01*
X0057110Y0033230D01*
X0057104Y0033355D01*
X0057102Y0033480D01*
X0127969Y0033480D02*
X0127971Y0033605D01*
X0127977Y0033730D01*
X0127987Y0033854D01*
X0128001Y0033978D01*
X0128018Y0034102D01*
X0128040Y0034225D01*
X0128066Y0034347D01*
X0128095Y0034469D01*
X0128128Y0034589D01*
X0128166Y0034708D01*
X0128206Y0034827D01*
X0128251Y0034943D01*
X0128299Y0035058D01*
X0128351Y0035172D01*
X0128407Y0035284D01*
X0128466Y0035394D01*
X0128528Y0035502D01*
X0128594Y0035609D01*
X0128663Y0035713D01*
X0128736Y0035814D01*
X0128811Y0035914D01*
X0128890Y0036011D01*
X0128972Y0036105D01*
X0129057Y0036197D01*
X0129144Y0036286D01*
X0129235Y0036372D01*
X0129328Y0036455D01*
X0129424Y0036536D01*
X0129522Y0036613D01*
X0129622Y0036687D01*
X0129725Y0036758D01*
X0129830Y0036825D01*
X0129938Y0036890D01*
X0130047Y0036950D01*
X0130158Y0037008D01*
X0130271Y0037061D01*
X0130385Y0037111D01*
X0130501Y0037158D01*
X0130618Y0037200D01*
X0130737Y0037239D01*
X0130857Y0037275D01*
X0130978Y0037306D01*
X0131100Y0037334D01*
X0131222Y0037357D01*
X0131346Y0037377D01*
X0131470Y0037393D01*
X0131594Y0037405D01*
X0131719Y0037413D01*
X0131844Y0037417D01*
X0131968Y0037417D01*
X0132093Y0037413D01*
X0132218Y0037405D01*
X0132342Y0037393D01*
X0132466Y0037377D01*
X0132590Y0037357D01*
X0132712Y0037334D01*
X0132834Y0037306D01*
X0132955Y0037275D01*
X0133075Y0037239D01*
X0133194Y0037200D01*
X0133311Y0037158D01*
X0133427Y0037111D01*
X0133541Y0037061D01*
X0133654Y0037008D01*
X0133765Y0036950D01*
X0133875Y0036890D01*
X0133982Y0036825D01*
X0134087Y0036758D01*
X0134190Y0036687D01*
X0134290Y0036613D01*
X0134388Y0036536D01*
X0134484Y0036455D01*
X0134577Y0036372D01*
X0134668Y0036286D01*
X0134755Y0036197D01*
X0134840Y0036105D01*
X0134922Y0036011D01*
X0135001Y0035914D01*
X0135076Y0035814D01*
X0135149Y0035713D01*
X0135218Y0035609D01*
X0135284Y0035502D01*
X0135346Y0035394D01*
X0135405Y0035284D01*
X0135461Y0035172D01*
X0135513Y0035058D01*
X0135561Y0034943D01*
X0135606Y0034827D01*
X0135646Y0034708D01*
X0135684Y0034589D01*
X0135717Y0034469D01*
X0135746Y0034347D01*
X0135772Y0034225D01*
X0135794Y0034102D01*
X0135811Y0033978D01*
X0135825Y0033854D01*
X0135835Y0033730D01*
X0135841Y0033605D01*
X0135843Y0033480D01*
X0135841Y0033355D01*
X0135835Y0033230D01*
X0135825Y0033106D01*
X0135811Y0032982D01*
X0135794Y0032858D01*
X0135772Y0032735D01*
X0135746Y0032613D01*
X0135717Y0032491D01*
X0135684Y0032371D01*
X0135646Y0032252D01*
X0135606Y0032133D01*
X0135561Y0032017D01*
X0135513Y0031902D01*
X0135461Y0031788D01*
X0135405Y0031676D01*
X0135346Y0031566D01*
X0135284Y0031458D01*
X0135218Y0031351D01*
X0135149Y0031247D01*
X0135076Y0031146D01*
X0135001Y0031046D01*
X0134922Y0030949D01*
X0134840Y0030855D01*
X0134755Y0030763D01*
X0134668Y0030674D01*
X0134577Y0030588D01*
X0134484Y0030505D01*
X0134388Y0030424D01*
X0134290Y0030347D01*
X0134190Y0030273D01*
X0134087Y0030202D01*
X0133982Y0030135D01*
X0133874Y0030070D01*
X0133765Y0030010D01*
X0133654Y0029952D01*
X0133541Y0029899D01*
X0133427Y0029849D01*
X0133311Y0029802D01*
X0133194Y0029760D01*
X0133075Y0029721D01*
X0132955Y0029685D01*
X0132834Y0029654D01*
X0132712Y0029626D01*
X0132590Y0029603D01*
X0132466Y0029583D01*
X0132342Y0029567D01*
X0132218Y0029555D01*
X0132093Y0029547D01*
X0131968Y0029543D01*
X0131844Y0029543D01*
X0131719Y0029547D01*
X0131594Y0029555D01*
X0131470Y0029567D01*
X0131346Y0029583D01*
X0131222Y0029603D01*
X0131100Y0029626D01*
X0130978Y0029654D01*
X0130857Y0029685D01*
X0130737Y0029721D01*
X0130618Y0029760D01*
X0130501Y0029802D01*
X0130385Y0029849D01*
X0130271Y0029899D01*
X0130158Y0029952D01*
X0130047Y0030010D01*
X0129937Y0030070D01*
X0129830Y0030135D01*
X0129725Y0030202D01*
X0129622Y0030273D01*
X0129522Y0030347D01*
X0129424Y0030424D01*
X0129328Y0030505D01*
X0129235Y0030588D01*
X0129144Y0030674D01*
X0129057Y0030763D01*
X0128972Y0030855D01*
X0128890Y0030949D01*
X0128811Y0031046D01*
X0128736Y0031146D01*
X0128663Y0031247D01*
X0128594Y0031351D01*
X0128528Y0031458D01*
X0128466Y0031566D01*
X0128407Y0031676D01*
X0128351Y0031788D01*
X0128299Y0031902D01*
X0128251Y0032017D01*
X0128206Y0032133D01*
X0128166Y0032252D01*
X0128128Y0032371D01*
X0128095Y0032491D01*
X0128066Y0032613D01*
X0128040Y0032735D01*
X0128018Y0032858D01*
X0128001Y0032982D01*
X0127987Y0033106D01*
X0127977Y0033230D01*
X0127971Y0033355D01*
X0127969Y0033480D01*
X0033480Y0198835D02*
X0033501Y0200526D01*
X0033563Y0202216D01*
X0033667Y0203903D01*
X0033812Y0205588D01*
X0033998Y0207269D01*
X0034226Y0208944D01*
X0034494Y0210614D01*
X0034804Y0212276D01*
X0035154Y0213931D01*
X0035545Y0215576D01*
X0035976Y0217211D01*
X0036447Y0218835D01*
X0036957Y0220447D01*
X0037507Y0222046D01*
X0038097Y0223631D01*
X0038725Y0225201D01*
X0039391Y0226755D01*
X0040095Y0228293D01*
X0040837Y0229812D01*
X0041615Y0231313D01*
X0042431Y0232795D01*
X0043282Y0234256D01*
X0044169Y0235695D01*
X0045091Y0237113D01*
X0046048Y0238507D01*
X0047039Y0239877D01*
X0048063Y0241223D01*
X0049119Y0242543D01*
X0050208Y0243837D01*
X0051328Y0245104D01*
X0052479Y0246343D01*
X0053660Y0247553D01*
X0054870Y0248734D01*
X0056109Y0249885D01*
X0057376Y0251005D01*
X0058670Y0252094D01*
X0059990Y0253150D01*
X0061336Y0254174D01*
X0062706Y0255165D01*
X0064100Y0256122D01*
X0065518Y0257044D01*
X0066957Y0257931D01*
X0068418Y0258782D01*
X0069900Y0259598D01*
X0071401Y0260376D01*
X0072920Y0261118D01*
X0074458Y0261822D01*
X0076012Y0262488D01*
X0077582Y0263116D01*
X0079167Y0263706D01*
X0080766Y0264256D01*
X0082378Y0264766D01*
X0084002Y0265237D01*
X0085637Y0265668D01*
X0087282Y0266059D01*
X0088937Y0266409D01*
X0090599Y0266719D01*
X0092269Y0266987D01*
X0093944Y0267215D01*
X0095625Y0267401D01*
X0097310Y0267546D01*
X0098997Y0267650D01*
X0100687Y0267712D01*
X0102378Y0267733D01*
X0104069Y0267712D01*
X0105759Y0267650D01*
X0107446Y0267546D01*
X0109131Y0267401D01*
X0110812Y0267215D01*
X0112487Y0266987D01*
X0114157Y0266719D01*
X0115819Y0266409D01*
X0117474Y0266059D01*
X0119119Y0265668D01*
X0120754Y0265237D01*
X0122378Y0264766D01*
X0123990Y0264256D01*
X0125589Y0263706D01*
X0127174Y0263116D01*
X0128744Y0262488D01*
X0130298Y0261822D01*
X0131836Y0261118D01*
X0133355Y0260376D01*
X0134856Y0259598D01*
X0136338Y0258782D01*
X0137799Y0257931D01*
X0139238Y0257044D01*
X0140656Y0256122D01*
X0142050Y0255165D01*
X0143420Y0254174D01*
X0144766Y0253150D01*
X0146086Y0252094D01*
X0147380Y0251005D01*
X0148647Y0249885D01*
X0149886Y0248734D01*
X0151096Y0247553D01*
X0152277Y0246343D01*
X0153428Y0245104D01*
X0154548Y0243837D01*
X0155637Y0242543D01*
X0156693Y0241223D01*
X0157717Y0239877D01*
X0158708Y0238507D01*
X0159665Y0237113D01*
X0160587Y0235695D01*
X0161474Y0234256D01*
X0162325Y0232795D01*
X0163141Y0231313D01*
X0163919Y0229812D01*
X0164661Y0228293D01*
X0165365Y0226755D01*
X0166031Y0225201D01*
X0166659Y0223631D01*
X0167249Y0222046D01*
X0167799Y0220447D01*
X0168309Y0218835D01*
X0168780Y0217211D01*
X0169211Y0215576D01*
X0169602Y0213931D01*
X0169952Y0212276D01*
X0170262Y0210614D01*
X0170530Y0208944D01*
X0170758Y0207269D01*
X0170944Y0205588D01*
X0171089Y0203903D01*
X0171193Y0202216D01*
X0171255Y0200526D01*
X0171276Y0198835D01*
X0171255Y0197144D01*
X0171193Y0195454D01*
X0171089Y0193767D01*
X0170944Y0192082D01*
X0170758Y0190401D01*
X0170530Y0188726D01*
X0170262Y0187056D01*
X0169952Y0185394D01*
X0169602Y0183739D01*
X0169211Y0182094D01*
X0168780Y0180459D01*
X0168309Y0178835D01*
X0167799Y0177223D01*
X0167249Y0175624D01*
X0166659Y0174039D01*
X0166031Y0172469D01*
X0165365Y0170915D01*
X0164661Y0169377D01*
X0163919Y0167858D01*
X0163141Y0166357D01*
X0162325Y0164875D01*
X0161474Y0163414D01*
X0160587Y0161975D01*
X0159665Y0160557D01*
X0158708Y0159163D01*
X0157717Y0157793D01*
X0156693Y0156447D01*
X0155637Y0155127D01*
X0154548Y0153833D01*
X0153428Y0152566D01*
X0152277Y0151327D01*
X0151096Y0150117D01*
X0149886Y0148936D01*
X0148647Y0147785D01*
X0147380Y0146665D01*
X0146086Y0145576D01*
X0144766Y0144520D01*
X0143420Y0143496D01*
X0142050Y0142505D01*
X0140656Y0141548D01*
X0139238Y0140626D01*
X0137799Y0139739D01*
X0136338Y0138888D01*
X0134856Y0138072D01*
X0133355Y0137294D01*
X0131836Y0136552D01*
X0130298Y0135848D01*
X0128744Y0135182D01*
X0127174Y0134554D01*
X0125589Y0133964D01*
X0123990Y0133414D01*
X0122378Y0132904D01*
X0120754Y0132433D01*
X0119119Y0132002D01*
X0117474Y0131611D01*
X0115819Y0131261D01*
X0114157Y0130951D01*
X0112487Y0130683D01*
X0110812Y0130455D01*
X0109131Y0130269D01*
X0107446Y0130124D01*
X0105759Y0130020D01*
X0104069Y0129958D01*
X0102378Y0129937D01*
X0100687Y0129958D01*
X0098997Y0130020D01*
X0097310Y0130124D01*
X0095625Y0130269D01*
X0093944Y0130455D01*
X0092269Y0130683D01*
X0090599Y0130951D01*
X0088937Y0131261D01*
X0087282Y0131611D01*
X0085637Y0132002D01*
X0084002Y0132433D01*
X0082378Y0132904D01*
X0080766Y0133414D01*
X0079167Y0133964D01*
X0077582Y0134554D01*
X0076012Y0135182D01*
X0074458Y0135848D01*
X0072920Y0136552D01*
X0071401Y0137294D01*
X0069900Y0138072D01*
X0068418Y0138888D01*
X0066957Y0139739D01*
X0065518Y0140626D01*
X0064100Y0141548D01*
X0062706Y0142505D01*
X0061336Y0143496D01*
X0059990Y0144520D01*
X0058670Y0145576D01*
X0057376Y0146665D01*
X0056109Y0147785D01*
X0054870Y0148936D01*
X0053660Y0150117D01*
X0052479Y0151327D01*
X0051328Y0152566D01*
X0050208Y0153833D01*
X0049119Y0155127D01*
X0048063Y0156447D01*
X0047039Y0157793D01*
X0046048Y0159163D01*
X0045091Y0160557D01*
X0044169Y0161975D01*
X0043282Y0163414D01*
X0042431Y0164875D01*
X0041615Y0166357D01*
X0040837Y0167858D01*
X0040095Y0169377D01*
X0039391Y0170915D01*
X0038725Y0172469D01*
X0038097Y0174039D01*
X0037507Y0175624D01*
X0036957Y0177223D01*
X0036447Y0178835D01*
X0035976Y0180459D01*
X0035545Y0182094D01*
X0035154Y0183739D01*
X0034804Y0185394D01*
X0034494Y0187056D01*
X0034226Y0188726D01*
X0033998Y0190401D01*
X0033812Y0192082D01*
X0033667Y0193767D01*
X0033563Y0195454D01*
X0033501Y0197144D01*
X0033480Y0198835D01*
X0338264Y0333087D02*
X0338266Y0333248D01*
X0338272Y0333408D01*
X0338282Y0333569D01*
X0338296Y0333729D01*
X0338314Y0333889D01*
X0338335Y0334048D01*
X0338361Y0334207D01*
X0338391Y0334365D01*
X0338424Y0334522D01*
X0338462Y0334679D01*
X0338503Y0334834D01*
X0338548Y0334988D01*
X0338597Y0335141D01*
X0338650Y0335293D01*
X0338706Y0335444D01*
X0338767Y0335593D01*
X0338830Y0335741D01*
X0338898Y0335887D01*
X0338969Y0336031D01*
X0339043Y0336173D01*
X0339121Y0336314D01*
X0339203Y0336452D01*
X0339288Y0336589D01*
X0339376Y0336723D01*
X0339468Y0336855D01*
X0339563Y0336985D01*
X0339661Y0337113D01*
X0339762Y0337238D01*
X0339866Y0337360D01*
X0339973Y0337480D01*
X0340083Y0337597D01*
X0340196Y0337712D01*
X0340312Y0337823D01*
X0340431Y0337932D01*
X0340552Y0338037D01*
X0340676Y0338140D01*
X0340802Y0338240D01*
X0340930Y0338336D01*
X0341061Y0338429D01*
X0341195Y0338519D01*
X0341330Y0338606D01*
X0341468Y0338689D01*
X0341607Y0338769D01*
X0341749Y0338845D01*
X0341892Y0338918D01*
X0342037Y0338987D01*
X0342184Y0339053D01*
X0342332Y0339115D01*
X0342482Y0339173D01*
X0342633Y0339228D01*
X0342786Y0339279D01*
X0342940Y0339326D01*
X0343095Y0339369D01*
X0343251Y0339408D01*
X0343407Y0339444D01*
X0343565Y0339475D01*
X0343723Y0339503D01*
X0343882Y0339527D01*
X0344042Y0339547D01*
X0344202Y0339563D01*
X0344362Y0339575D01*
X0344523Y0339583D01*
X0344684Y0339587D01*
X0344844Y0339587D01*
X0345005Y0339583D01*
X0345166Y0339575D01*
X0345326Y0339563D01*
X0345486Y0339547D01*
X0345646Y0339527D01*
X0345805Y0339503D01*
X0345963Y0339475D01*
X0346121Y0339444D01*
X0346277Y0339408D01*
X0346433Y0339369D01*
X0346588Y0339326D01*
X0346742Y0339279D01*
X0346895Y0339228D01*
X0347046Y0339173D01*
X0347196Y0339115D01*
X0347344Y0339053D01*
X0347491Y0338987D01*
X0347636Y0338918D01*
X0347779Y0338845D01*
X0347921Y0338769D01*
X0348060Y0338689D01*
X0348198Y0338606D01*
X0348333Y0338519D01*
X0348467Y0338429D01*
X0348598Y0338336D01*
X0348726Y0338240D01*
X0348852Y0338140D01*
X0348976Y0338037D01*
X0349097Y0337932D01*
X0349216Y0337823D01*
X0349332Y0337712D01*
X0349445Y0337597D01*
X0349555Y0337480D01*
X0349662Y0337360D01*
X0349766Y0337238D01*
X0349867Y0337113D01*
X0349965Y0336985D01*
X0350060Y0336855D01*
X0350152Y0336723D01*
X0350240Y0336589D01*
X0350325Y0336452D01*
X0350407Y0336314D01*
X0350485Y0336173D01*
X0350559Y0336031D01*
X0350630Y0335887D01*
X0350698Y0335741D01*
X0350761Y0335593D01*
X0350822Y0335444D01*
X0350878Y0335293D01*
X0350931Y0335141D01*
X0350980Y0334988D01*
X0351025Y0334834D01*
X0351066Y0334679D01*
X0351104Y0334522D01*
X0351137Y0334365D01*
X0351167Y0334207D01*
X0351193Y0334048D01*
X0351214Y0333889D01*
X0351232Y0333729D01*
X0351246Y0333569D01*
X0351256Y0333408D01*
X0351262Y0333248D01*
X0351264Y0333087D01*
X0351262Y0332926D01*
X0351256Y0332766D01*
X0351246Y0332605D01*
X0351232Y0332445D01*
X0351214Y0332285D01*
X0351193Y0332126D01*
X0351167Y0331967D01*
X0351137Y0331809D01*
X0351104Y0331652D01*
X0351066Y0331495D01*
X0351025Y0331340D01*
X0350980Y0331186D01*
X0350931Y0331033D01*
X0350878Y0330881D01*
X0350822Y0330730D01*
X0350761Y0330581D01*
X0350698Y0330433D01*
X0350630Y0330287D01*
X0350559Y0330143D01*
X0350485Y0330001D01*
X0350407Y0329860D01*
X0350325Y0329722D01*
X0350240Y0329585D01*
X0350152Y0329451D01*
X0350060Y0329319D01*
X0349965Y0329189D01*
X0349867Y0329061D01*
X0349766Y0328936D01*
X0349662Y0328814D01*
X0349555Y0328694D01*
X0349445Y0328577D01*
X0349332Y0328462D01*
X0349216Y0328351D01*
X0349097Y0328242D01*
X0348976Y0328137D01*
X0348852Y0328034D01*
X0348726Y0327934D01*
X0348598Y0327838D01*
X0348467Y0327745D01*
X0348333Y0327655D01*
X0348198Y0327568D01*
X0348060Y0327485D01*
X0347921Y0327405D01*
X0347779Y0327329D01*
X0347636Y0327256D01*
X0347491Y0327187D01*
X0347344Y0327121D01*
X0347196Y0327059D01*
X0347046Y0327001D01*
X0346895Y0326946D01*
X0346742Y0326895D01*
X0346588Y0326848D01*
X0346433Y0326805D01*
X0346277Y0326766D01*
X0346121Y0326730D01*
X0345963Y0326699D01*
X0345805Y0326671D01*
X0345646Y0326647D01*
X0345486Y0326627D01*
X0345326Y0326611D01*
X0345166Y0326599D01*
X0345005Y0326591D01*
X0344844Y0326587D01*
X0344684Y0326587D01*
X0344523Y0326591D01*
X0344362Y0326599D01*
X0344202Y0326611D01*
X0344042Y0326627D01*
X0343882Y0326647D01*
X0343723Y0326671D01*
X0343565Y0326699D01*
X0343407Y0326730D01*
X0343251Y0326766D01*
X0343095Y0326805D01*
X0342940Y0326848D01*
X0342786Y0326895D01*
X0342633Y0326946D01*
X0342482Y0327001D01*
X0342332Y0327059D01*
X0342184Y0327121D01*
X0342037Y0327187D01*
X0341892Y0327256D01*
X0341749Y0327329D01*
X0341607Y0327405D01*
X0341468Y0327485D01*
X0341330Y0327568D01*
X0341195Y0327655D01*
X0341061Y0327745D01*
X0340930Y0327838D01*
X0340802Y0327934D01*
X0340676Y0328034D01*
X0340552Y0328137D01*
X0340431Y0328242D01*
X0340312Y0328351D01*
X0340196Y0328462D01*
X0340083Y0328577D01*
X0339973Y0328694D01*
X0339866Y0328814D01*
X0339762Y0328936D01*
X0339661Y0329061D01*
X0339563Y0329189D01*
X0339468Y0329319D01*
X0339376Y0329451D01*
X0339288Y0329585D01*
X0339203Y0329722D01*
X0339121Y0329860D01*
X0339043Y0330001D01*
X0338969Y0330143D01*
X0338898Y0330287D01*
X0338830Y0330433D01*
X0338767Y0330581D01*
X0338706Y0330730D01*
X0338650Y0330881D01*
X0338597Y0331033D01*
X0338548Y0331186D01*
X0338503Y0331340D01*
X0338462Y0331495D01*
X0338424Y0331652D01*
X0338391Y0331809D01*
X0338361Y0331967D01*
X0338335Y0332126D01*
X0338314Y0332285D01*
X0338296Y0332445D01*
X0338282Y0332605D01*
X0338272Y0332766D01*
X0338266Y0332926D01*
X0338264Y0333087D01*
X0127969Y0364189D02*
X0127971Y0364314D01*
X0127977Y0364439D01*
X0127987Y0364563D01*
X0128001Y0364687D01*
X0128018Y0364811D01*
X0128040Y0364934D01*
X0128066Y0365056D01*
X0128095Y0365178D01*
X0128128Y0365298D01*
X0128166Y0365417D01*
X0128206Y0365536D01*
X0128251Y0365652D01*
X0128299Y0365767D01*
X0128351Y0365881D01*
X0128407Y0365993D01*
X0128466Y0366103D01*
X0128528Y0366211D01*
X0128594Y0366318D01*
X0128663Y0366422D01*
X0128736Y0366523D01*
X0128811Y0366623D01*
X0128890Y0366720D01*
X0128972Y0366814D01*
X0129057Y0366906D01*
X0129144Y0366995D01*
X0129235Y0367081D01*
X0129328Y0367164D01*
X0129424Y0367245D01*
X0129522Y0367322D01*
X0129622Y0367396D01*
X0129725Y0367467D01*
X0129830Y0367534D01*
X0129938Y0367599D01*
X0130047Y0367659D01*
X0130158Y0367717D01*
X0130271Y0367770D01*
X0130385Y0367820D01*
X0130501Y0367867D01*
X0130618Y0367909D01*
X0130737Y0367948D01*
X0130857Y0367984D01*
X0130978Y0368015D01*
X0131100Y0368043D01*
X0131222Y0368066D01*
X0131346Y0368086D01*
X0131470Y0368102D01*
X0131594Y0368114D01*
X0131719Y0368122D01*
X0131844Y0368126D01*
X0131968Y0368126D01*
X0132093Y0368122D01*
X0132218Y0368114D01*
X0132342Y0368102D01*
X0132466Y0368086D01*
X0132590Y0368066D01*
X0132712Y0368043D01*
X0132834Y0368015D01*
X0132955Y0367984D01*
X0133075Y0367948D01*
X0133194Y0367909D01*
X0133311Y0367867D01*
X0133427Y0367820D01*
X0133541Y0367770D01*
X0133654Y0367717D01*
X0133765Y0367659D01*
X0133875Y0367599D01*
X0133982Y0367534D01*
X0134087Y0367467D01*
X0134190Y0367396D01*
X0134290Y0367322D01*
X0134388Y0367245D01*
X0134484Y0367164D01*
X0134577Y0367081D01*
X0134668Y0366995D01*
X0134755Y0366906D01*
X0134840Y0366814D01*
X0134922Y0366720D01*
X0135001Y0366623D01*
X0135076Y0366523D01*
X0135149Y0366422D01*
X0135218Y0366318D01*
X0135284Y0366211D01*
X0135346Y0366103D01*
X0135405Y0365993D01*
X0135461Y0365881D01*
X0135513Y0365767D01*
X0135561Y0365652D01*
X0135606Y0365536D01*
X0135646Y0365417D01*
X0135684Y0365298D01*
X0135717Y0365178D01*
X0135746Y0365056D01*
X0135772Y0364934D01*
X0135794Y0364811D01*
X0135811Y0364687D01*
X0135825Y0364563D01*
X0135835Y0364439D01*
X0135841Y0364314D01*
X0135843Y0364189D01*
X0135841Y0364064D01*
X0135835Y0363939D01*
X0135825Y0363815D01*
X0135811Y0363691D01*
X0135794Y0363567D01*
X0135772Y0363444D01*
X0135746Y0363322D01*
X0135717Y0363200D01*
X0135684Y0363080D01*
X0135646Y0362961D01*
X0135606Y0362842D01*
X0135561Y0362726D01*
X0135513Y0362611D01*
X0135461Y0362497D01*
X0135405Y0362385D01*
X0135346Y0362275D01*
X0135284Y0362167D01*
X0135218Y0362060D01*
X0135149Y0361956D01*
X0135076Y0361855D01*
X0135001Y0361755D01*
X0134922Y0361658D01*
X0134840Y0361564D01*
X0134755Y0361472D01*
X0134668Y0361383D01*
X0134577Y0361297D01*
X0134484Y0361214D01*
X0134388Y0361133D01*
X0134290Y0361056D01*
X0134190Y0360982D01*
X0134087Y0360911D01*
X0133982Y0360844D01*
X0133874Y0360779D01*
X0133765Y0360719D01*
X0133654Y0360661D01*
X0133541Y0360608D01*
X0133427Y0360558D01*
X0133311Y0360511D01*
X0133194Y0360469D01*
X0133075Y0360430D01*
X0132955Y0360394D01*
X0132834Y0360363D01*
X0132712Y0360335D01*
X0132590Y0360312D01*
X0132466Y0360292D01*
X0132342Y0360276D01*
X0132218Y0360264D01*
X0132093Y0360256D01*
X0131968Y0360252D01*
X0131844Y0360252D01*
X0131719Y0360256D01*
X0131594Y0360264D01*
X0131470Y0360276D01*
X0131346Y0360292D01*
X0131222Y0360312D01*
X0131100Y0360335D01*
X0130978Y0360363D01*
X0130857Y0360394D01*
X0130737Y0360430D01*
X0130618Y0360469D01*
X0130501Y0360511D01*
X0130385Y0360558D01*
X0130271Y0360608D01*
X0130158Y0360661D01*
X0130047Y0360719D01*
X0129937Y0360779D01*
X0129830Y0360844D01*
X0129725Y0360911D01*
X0129622Y0360982D01*
X0129522Y0361056D01*
X0129424Y0361133D01*
X0129328Y0361214D01*
X0129235Y0361297D01*
X0129144Y0361383D01*
X0129057Y0361472D01*
X0128972Y0361564D01*
X0128890Y0361658D01*
X0128811Y0361755D01*
X0128736Y0361855D01*
X0128663Y0361956D01*
X0128594Y0362060D01*
X0128528Y0362167D01*
X0128466Y0362275D01*
X0128407Y0362385D01*
X0128351Y0362497D01*
X0128299Y0362611D01*
X0128251Y0362726D01*
X0128206Y0362842D01*
X0128166Y0362961D01*
X0128128Y0363080D01*
X0128095Y0363200D01*
X0128066Y0363322D01*
X0128040Y0363444D01*
X0128018Y0363567D01*
X0128001Y0363691D01*
X0127987Y0363815D01*
X0127977Y0363939D01*
X0127971Y0364064D01*
X0127969Y0364189D01*
X0057102Y0364189D02*
X0057104Y0364314D01*
X0057110Y0364439D01*
X0057120Y0364563D01*
X0057134Y0364687D01*
X0057151Y0364811D01*
X0057173Y0364934D01*
X0057199Y0365056D01*
X0057228Y0365178D01*
X0057261Y0365298D01*
X0057299Y0365417D01*
X0057339Y0365536D01*
X0057384Y0365652D01*
X0057432Y0365767D01*
X0057484Y0365881D01*
X0057540Y0365993D01*
X0057599Y0366103D01*
X0057661Y0366211D01*
X0057727Y0366318D01*
X0057796Y0366422D01*
X0057869Y0366523D01*
X0057944Y0366623D01*
X0058023Y0366720D01*
X0058105Y0366814D01*
X0058190Y0366906D01*
X0058277Y0366995D01*
X0058368Y0367081D01*
X0058461Y0367164D01*
X0058557Y0367245D01*
X0058655Y0367322D01*
X0058755Y0367396D01*
X0058858Y0367467D01*
X0058963Y0367534D01*
X0059071Y0367599D01*
X0059180Y0367659D01*
X0059291Y0367717D01*
X0059404Y0367770D01*
X0059518Y0367820D01*
X0059634Y0367867D01*
X0059751Y0367909D01*
X0059870Y0367948D01*
X0059990Y0367984D01*
X0060111Y0368015D01*
X0060233Y0368043D01*
X0060355Y0368066D01*
X0060479Y0368086D01*
X0060603Y0368102D01*
X0060727Y0368114D01*
X0060852Y0368122D01*
X0060977Y0368126D01*
X0061101Y0368126D01*
X0061226Y0368122D01*
X0061351Y0368114D01*
X0061475Y0368102D01*
X0061599Y0368086D01*
X0061723Y0368066D01*
X0061845Y0368043D01*
X0061967Y0368015D01*
X0062088Y0367984D01*
X0062208Y0367948D01*
X0062327Y0367909D01*
X0062444Y0367867D01*
X0062560Y0367820D01*
X0062674Y0367770D01*
X0062787Y0367717D01*
X0062898Y0367659D01*
X0063008Y0367599D01*
X0063115Y0367534D01*
X0063220Y0367467D01*
X0063323Y0367396D01*
X0063423Y0367322D01*
X0063521Y0367245D01*
X0063617Y0367164D01*
X0063710Y0367081D01*
X0063801Y0366995D01*
X0063888Y0366906D01*
X0063973Y0366814D01*
X0064055Y0366720D01*
X0064134Y0366623D01*
X0064209Y0366523D01*
X0064282Y0366422D01*
X0064351Y0366318D01*
X0064417Y0366211D01*
X0064479Y0366103D01*
X0064538Y0365993D01*
X0064594Y0365881D01*
X0064646Y0365767D01*
X0064694Y0365652D01*
X0064739Y0365536D01*
X0064779Y0365417D01*
X0064817Y0365298D01*
X0064850Y0365178D01*
X0064879Y0365056D01*
X0064905Y0364934D01*
X0064927Y0364811D01*
X0064944Y0364687D01*
X0064958Y0364563D01*
X0064968Y0364439D01*
X0064974Y0364314D01*
X0064976Y0364189D01*
X0064974Y0364064D01*
X0064968Y0363939D01*
X0064958Y0363815D01*
X0064944Y0363691D01*
X0064927Y0363567D01*
X0064905Y0363444D01*
X0064879Y0363322D01*
X0064850Y0363200D01*
X0064817Y0363080D01*
X0064779Y0362961D01*
X0064739Y0362842D01*
X0064694Y0362726D01*
X0064646Y0362611D01*
X0064594Y0362497D01*
X0064538Y0362385D01*
X0064479Y0362275D01*
X0064417Y0362167D01*
X0064351Y0362060D01*
X0064282Y0361956D01*
X0064209Y0361855D01*
X0064134Y0361755D01*
X0064055Y0361658D01*
X0063973Y0361564D01*
X0063888Y0361472D01*
X0063801Y0361383D01*
X0063710Y0361297D01*
X0063617Y0361214D01*
X0063521Y0361133D01*
X0063423Y0361056D01*
X0063323Y0360982D01*
X0063220Y0360911D01*
X0063115Y0360844D01*
X0063007Y0360779D01*
X0062898Y0360719D01*
X0062787Y0360661D01*
X0062674Y0360608D01*
X0062560Y0360558D01*
X0062444Y0360511D01*
X0062327Y0360469D01*
X0062208Y0360430D01*
X0062088Y0360394D01*
X0061967Y0360363D01*
X0061845Y0360335D01*
X0061723Y0360312D01*
X0061599Y0360292D01*
X0061475Y0360276D01*
X0061351Y0360264D01*
X0061226Y0360256D01*
X0061101Y0360252D01*
X0060977Y0360252D01*
X0060852Y0360256D01*
X0060727Y0360264D01*
X0060603Y0360276D01*
X0060479Y0360292D01*
X0060355Y0360312D01*
X0060233Y0360335D01*
X0060111Y0360363D01*
X0059990Y0360394D01*
X0059870Y0360430D01*
X0059751Y0360469D01*
X0059634Y0360511D01*
X0059518Y0360558D01*
X0059404Y0360608D01*
X0059291Y0360661D01*
X0059180Y0360719D01*
X0059070Y0360779D01*
X0058963Y0360844D01*
X0058858Y0360911D01*
X0058755Y0360982D01*
X0058655Y0361056D01*
X0058557Y0361133D01*
X0058461Y0361214D01*
X0058368Y0361297D01*
X0058277Y0361383D01*
X0058190Y0361472D01*
X0058105Y0361564D01*
X0058023Y0361658D01*
X0057944Y0361755D01*
X0057869Y0361855D01*
X0057796Y0361956D01*
X0057727Y0362060D01*
X0057661Y0362167D01*
X0057599Y0362275D01*
X0057540Y0362385D01*
X0057484Y0362497D01*
X0057432Y0362611D01*
X0057384Y0362726D01*
X0057339Y0362842D01*
X0057299Y0362961D01*
X0057261Y0363080D01*
X0057228Y0363200D01*
X0057199Y0363322D01*
X0057173Y0363444D01*
X0057151Y0363567D01*
X0057134Y0363691D01*
X0057120Y0363815D01*
X0057110Y0363939D01*
X0057104Y0364064D01*
X0057102Y0364189D01*
X0982299Y0275606D02*
X0982301Y0275731D01*
X0982307Y0275856D01*
X0982317Y0275980D01*
X0982331Y0276104D01*
X0982348Y0276228D01*
X0982370Y0276351D01*
X0982396Y0276473D01*
X0982425Y0276595D01*
X0982458Y0276715D01*
X0982496Y0276834D01*
X0982536Y0276953D01*
X0982581Y0277069D01*
X0982629Y0277184D01*
X0982681Y0277298D01*
X0982737Y0277410D01*
X0982796Y0277520D01*
X0982858Y0277628D01*
X0982924Y0277735D01*
X0982993Y0277839D01*
X0983066Y0277940D01*
X0983141Y0278040D01*
X0983220Y0278137D01*
X0983302Y0278231D01*
X0983387Y0278323D01*
X0983474Y0278412D01*
X0983565Y0278498D01*
X0983658Y0278581D01*
X0983754Y0278662D01*
X0983852Y0278739D01*
X0983952Y0278813D01*
X0984055Y0278884D01*
X0984160Y0278951D01*
X0984268Y0279016D01*
X0984377Y0279076D01*
X0984488Y0279134D01*
X0984601Y0279187D01*
X0984715Y0279237D01*
X0984831Y0279284D01*
X0984948Y0279326D01*
X0985067Y0279365D01*
X0985187Y0279401D01*
X0985308Y0279432D01*
X0985430Y0279460D01*
X0985552Y0279483D01*
X0985676Y0279503D01*
X0985800Y0279519D01*
X0985924Y0279531D01*
X0986049Y0279539D01*
X0986174Y0279543D01*
X0986298Y0279543D01*
X0986423Y0279539D01*
X0986548Y0279531D01*
X0986672Y0279519D01*
X0986796Y0279503D01*
X0986920Y0279483D01*
X0987042Y0279460D01*
X0987164Y0279432D01*
X0987285Y0279401D01*
X0987405Y0279365D01*
X0987524Y0279326D01*
X0987641Y0279284D01*
X0987757Y0279237D01*
X0987871Y0279187D01*
X0987984Y0279134D01*
X0988095Y0279076D01*
X0988205Y0279016D01*
X0988312Y0278951D01*
X0988417Y0278884D01*
X0988520Y0278813D01*
X0988620Y0278739D01*
X0988718Y0278662D01*
X0988814Y0278581D01*
X0988907Y0278498D01*
X0988998Y0278412D01*
X0989085Y0278323D01*
X0989170Y0278231D01*
X0989252Y0278137D01*
X0989331Y0278040D01*
X0989406Y0277940D01*
X0989479Y0277839D01*
X0989548Y0277735D01*
X0989614Y0277628D01*
X0989676Y0277520D01*
X0989735Y0277410D01*
X0989791Y0277298D01*
X0989843Y0277184D01*
X0989891Y0277069D01*
X0989936Y0276953D01*
X0989976Y0276834D01*
X0990014Y0276715D01*
X0990047Y0276595D01*
X0990076Y0276473D01*
X0990102Y0276351D01*
X0990124Y0276228D01*
X0990141Y0276104D01*
X0990155Y0275980D01*
X0990165Y0275856D01*
X0990171Y0275731D01*
X0990173Y0275606D01*
X0990171Y0275481D01*
X0990165Y0275356D01*
X0990155Y0275232D01*
X0990141Y0275108D01*
X0990124Y0274984D01*
X0990102Y0274861D01*
X0990076Y0274739D01*
X0990047Y0274617D01*
X0990014Y0274497D01*
X0989976Y0274378D01*
X0989936Y0274259D01*
X0989891Y0274143D01*
X0989843Y0274028D01*
X0989791Y0273914D01*
X0989735Y0273802D01*
X0989676Y0273692D01*
X0989614Y0273584D01*
X0989548Y0273477D01*
X0989479Y0273373D01*
X0989406Y0273272D01*
X0989331Y0273172D01*
X0989252Y0273075D01*
X0989170Y0272981D01*
X0989085Y0272889D01*
X0988998Y0272800D01*
X0988907Y0272714D01*
X0988814Y0272631D01*
X0988718Y0272550D01*
X0988620Y0272473D01*
X0988520Y0272399D01*
X0988417Y0272328D01*
X0988312Y0272261D01*
X0988204Y0272196D01*
X0988095Y0272136D01*
X0987984Y0272078D01*
X0987871Y0272025D01*
X0987757Y0271975D01*
X0987641Y0271928D01*
X0987524Y0271886D01*
X0987405Y0271847D01*
X0987285Y0271811D01*
X0987164Y0271780D01*
X0987042Y0271752D01*
X0986920Y0271729D01*
X0986796Y0271709D01*
X0986672Y0271693D01*
X0986548Y0271681D01*
X0986423Y0271673D01*
X0986298Y0271669D01*
X0986174Y0271669D01*
X0986049Y0271673D01*
X0985924Y0271681D01*
X0985800Y0271693D01*
X0985676Y0271709D01*
X0985552Y0271729D01*
X0985430Y0271752D01*
X0985308Y0271780D01*
X0985187Y0271811D01*
X0985067Y0271847D01*
X0984948Y0271886D01*
X0984831Y0271928D01*
X0984715Y0271975D01*
X0984601Y0272025D01*
X0984488Y0272078D01*
X0984377Y0272136D01*
X0984267Y0272196D01*
X0984160Y0272261D01*
X0984055Y0272328D01*
X0983952Y0272399D01*
X0983852Y0272473D01*
X0983754Y0272550D01*
X0983658Y0272631D01*
X0983565Y0272714D01*
X0983474Y0272800D01*
X0983387Y0272889D01*
X0983302Y0272981D01*
X0983220Y0273075D01*
X0983141Y0273172D01*
X0983066Y0273272D01*
X0982993Y0273373D01*
X0982924Y0273477D01*
X0982858Y0273584D01*
X0982796Y0273692D01*
X0982737Y0273802D01*
X0982681Y0273914D01*
X0982629Y0274028D01*
X0982581Y0274143D01*
X0982536Y0274259D01*
X0982496Y0274378D01*
X0982458Y0274497D01*
X0982425Y0274617D01*
X0982396Y0274739D01*
X0982370Y0274861D01*
X0982348Y0274984D01*
X0982331Y0275108D01*
X0982317Y0275232D01*
X0982307Y0275356D01*
X0982301Y0275481D01*
X0982299Y0275606D01*
X0982299Y0122063D02*
X0982301Y0122188D01*
X0982307Y0122313D01*
X0982317Y0122437D01*
X0982331Y0122561D01*
X0982348Y0122685D01*
X0982370Y0122808D01*
X0982396Y0122930D01*
X0982425Y0123052D01*
X0982458Y0123172D01*
X0982496Y0123291D01*
X0982536Y0123410D01*
X0982581Y0123526D01*
X0982629Y0123641D01*
X0982681Y0123755D01*
X0982737Y0123867D01*
X0982796Y0123977D01*
X0982858Y0124085D01*
X0982924Y0124192D01*
X0982993Y0124296D01*
X0983066Y0124397D01*
X0983141Y0124497D01*
X0983220Y0124594D01*
X0983302Y0124688D01*
X0983387Y0124780D01*
X0983474Y0124869D01*
X0983565Y0124955D01*
X0983658Y0125038D01*
X0983754Y0125119D01*
X0983852Y0125196D01*
X0983952Y0125270D01*
X0984055Y0125341D01*
X0984160Y0125408D01*
X0984268Y0125473D01*
X0984377Y0125533D01*
X0984488Y0125591D01*
X0984601Y0125644D01*
X0984715Y0125694D01*
X0984831Y0125741D01*
X0984948Y0125783D01*
X0985067Y0125822D01*
X0985187Y0125858D01*
X0985308Y0125889D01*
X0985430Y0125917D01*
X0985552Y0125940D01*
X0985676Y0125960D01*
X0985800Y0125976D01*
X0985924Y0125988D01*
X0986049Y0125996D01*
X0986174Y0126000D01*
X0986298Y0126000D01*
X0986423Y0125996D01*
X0986548Y0125988D01*
X0986672Y0125976D01*
X0986796Y0125960D01*
X0986920Y0125940D01*
X0987042Y0125917D01*
X0987164Y0125889D01*
X0987285Y0125858D01*
X0987405Y0125822D01*
X0987524Y0125783D01*
X0987641Y0125741D01*
X0987757Y0125694D01*
X0987871Y0125644D01*
X0987984Y0125591D01*
X0988095Y0125533D01*
X0988205Y0125473D01*
X0988312Y0125408D01*
X0988417Y0125341D01*
X0988520Y0125270D01*
X0988620Y0125196D01*
X0988718Y0125119D01*
X0988814Y0125038D01*
X0988907Y0124955D01*
X0988998Y0124869D01*
X0989085Y0124780D01*
X0989170Y0124688D01*
X0989252Y0124594D01*
X0989331Y0124497D01*
X0989406Y0124397D01*
X0989479Y0124296D01*
X0989548Y0124192D01*
X0989614Y0124085D01*
X0989676Y0123977D01*
X0989735Y0123867D01*
X0989791Y0123755D01*
X0989843Y0123641D01*
X0989891Y0123526D01*
X0989936Y0123410D01*
X0989976Y0123291D01*
X0990014Y0123172D01*
X0990047Y0123052D01*
X0990076Y0122930D01*
X0990102Y0122808D01*
X0990124Y0122685D01*
X0990141Y0122561D01*
X0990155Y0122437D01*
X0990165Y0122313D01*
X0990171Y0122188D01*
X0990173Y0122063D01*
X0990171Y0121938D01*
X0990165Y0121813D01*
X0990155Y0121689D01*
X0990141Y0121565D01*
X0990124Y0121441D01*
X0990102Y0121318D01*
X0990076Y0121196D01*
X0990047Y0121074D01*
X0990014Y0120954D01*
X0989976Y0120835D01*
X0989936Y0120716D01*
X0989891Y0120600D01*
X0989843Y0120485D01*
X0989791Y0120371D01*
X0989735Y0120259D01*
X0989676Y0120149D01*
X0989614Y0120041D01*
X0989548Y0119934D01*
X0989479Y0119830D01*
X0989406Y0119729D01*
X0989331Y0119629D01*
X0989252Y0119532D01*
X0989170Y0119438D01*
X0989085Y0119346D01*
X0988998Y0119257D01*
X0988907Y0119171D01*
X0988814Y0119088D01*
X0988718Y0119007D01*
X0988620Y0118930D01*
X0988520Y0118856D01*
X0988417Y0118785D01*
X0988312Y0118718D01*
X0988204Y0118653D01*
X0988095Y0118593D01*
X0987984Y0118535D01*
X0987871Y0118482D01*
X0987757Y0118432D01*
X0987641Y0118385D01*
X0987524Y0118343D01*
X0987405Y0118304D01*
X0987285Y0118268D01*
X0987164Y0118237D01*
X0987042Y0118209D01*
X0986920Y0118186D01*
X0986796Y0118166D01*
X0986672Y0118150D01*
X0986548Y0118138D01*
X0986423Y0118130D01*
X0986298Y0118126D01*
X0986174Y0118126D01*
X0986049Y0118130D01*
X0985924Y0118138D01*
X0985800Y0118150D01*
X0985676Y0118166D01*
X0985552Y0118186D01*
X0985430Y0118209D01*
X0985308Y0118237D01*
X0985187Y0118268D01*
X0985067Y0118304D01*
X0984948Y0118343D01*
X0984831Y0118385D01*
X0984715Y0118432D01*
X0984601Y0118482D01*
X0984488Y0118535D01*
X0984377Y0118593D01*
X0984267Y0118653D01*
X0984160Y0118718D01*
X0984055Y0118785D01*
X0983952Y0118856D01*
X0983852Y0118930D01*
X0983754Y0119007D01*
X0983658Y0119088D01*
X0983565Y0119171D01*
X0983474Y0119257D01*
X0983387Y0119346D01*
X0983302Y0119438D01*
X0983220Y0119532D01*
X0983141Y0119629D01*
X0983066Y0119729D01*
X0982993Y0119830D01*
X0982924Y0119934D01*
X0982858Y0120041D01*
X0982796Y0120149D01*
X0982737Y0120259D01*
X0982681Y0120371D01*
X0982629Y0120485D01*
X0982581Y0120600D01*
X0982536Y0120716D01*
X0982496Y0120835D01*
X0982458Y0120954D01*
X0982425Y0121074D01*
X0982396Y0121196D01*
X0982370Y0121318D01*
X0982348Y0121441D01*
X0982331Y0121565D01*
X0982317Y0121689D01*
X0982307Y0121813D01*
X0982301Y0121938D01*
X0982299Y0122063D01*
D11*
X0948373Y0133928D02*
X0949564Y0138375D01*
X0947341Y0138971D01*
X0946401Y0138428D01*
X0946004Y0136946D01*
X0946546Y0136006D01*
X0948770Y0135411D01*
X0947287Y0135808D02*
X0945408Y0134723D01*
X0943925Y0135120D02*
X0940961Y0135914D01*
X0942443Y0135517D02*
X0943635Y0139964D01*
X0944720Y0138084D01*
X0940471Y0140017D02*
X0939929Y0140957D01*
X0938447Y0141354D01*
X0937507Y0140812D01*
X0937308Y0140070D01*
X0939478Y0136311D01*
X0936514Y0137106D01*
X0938675Y0132256D02*
X0937524Y0130263D01*
X0937805Y0129215D01*
X0939134Y0128447D01*
X0940183Y0128728D01*
X0941334Y0130722D01*
X0942663Y0129954D02*
X0938675Y0132256D01*
X0940566Y0129393D02*
X0941128Y0127296D01*
X0940361Y0125967D02*
X0938826Y0123309D01*
X0939593Y0124638D02*
X0935606Y0126940D01*
X0937703Y0127502D01*
X0933434Y0122030D02*
X0936093Y0120496D01*
X0936373Y0119447D01*
X0935606Y0118118D01*
X0934558Y0117838D01*
X0934455Y0116125D02*
X0930262Y0115001D01*
X0929598Y0115385D01*
X0929317Y0116433D01*
X0930084Y0117762D01*
X0931132Y0118043D01*
X0931900Y0119372D02*
X0931619Y0120420D01*
X0932386Y0121749D01*
X0933434Y0122030D01*
X0934455Y0116125D02*
X0932920Y0113467D01*
X0926915Y0102395D02*
X0922927Y0104697D01*
X0921776Y0102704D01*
X0922057Y0101656D01*
X0923386Y0100888D01*
X0924435Y0101169D01*
X0925585Y0103163D01*
X0924818Y0101834D02*
X0925380Y0099737D01*
X0924613Y0098408D02*
X0920420Y0097285D01*
X0919755Y0097669D01*
X0919474Y0098717D01*
X0920242Y0100046D01*
X0921290Y0100327D01*
X0924613Y0098408D02*
X0923078Y0095750D01*
X0911255Y0085971D02*
X0908000Y0089226D01*
X0906372Y0087599D01*
X0906372Y0086513D01*
X0907457Y0085428D01*
X0908542Y0085428D01*
X0910170Y0087056D01*
X0909085Y0085971D02*
X0909085Y0083801D01*
X0907457Y0083258D02*
X0907457Y0082173D01*
X0906372Y0081088D01*
X0905287Y0081088D01*
X0904744Y0081630D01*
X0904744Y0082715D01*
X0905287Y0083258D01*
X0904744Y0082715D02*
X0903659Y0082715D01*
X0903117Y0083258D01*
X0903117Y0084343D01*
X0904202Y0085428D01*
X0905287Y0085428D01*
X0902736Y0082877D02*
X0901651Y0082877D01*
X0900565Y0081792D01*
X0900565Y0080707D01*
X0900023Y0079079D02*
X0897853Y0079079D01*
X0901108Y0075824D01*
X0902193Y0076909D02*
X0900023Y0074738D01*
X0902736Y0078537D02*
X0903821Y0078537D01*
X0904906Y0079622D01*
X0904906Y0080707D01*
X0902736Y0082877D01*
X0886544Y0067771D02*
X0884916Y0066143D01*
X0884916Y0065058D01*
X0886002Y0063973D01*
X0887087Y0063973D01*
X0888714Y0065600D01*
X0887629Y0064515D02*
X0887629Y0062345D01*
X0884916Y0062887D02*
X0882746Y0060717D01*
X0884916Y0059632D02*
X0881661Y0062887D01*
X0884916Y0062887D01*
X0889800Y0064515D02*
X0886544Y0067771D01*
X0949730Y0155321D02*
X0952695Y0154527D01*
X0954177Y0154130D02*
X0956057Y0155215D01*
X0955316Y0155414D02*
X0957539Y0154818D01*
X0957142Y0153335D02*
X0958333Y0157783D01*
X0956110Y0158378D01*
X0955170Y0157836D01*
X0954773Y0156353D01*
X0955316Y0155414D01*
X0953489Y0157492D02*
X0952404Y0159371D01*
X0951212Y0154924D01*
X0948248Y0155719D02*
X0945283Y0156513D01*
X0946765Y0156116D02*
X0947957Y0160563D01*
X0949042Y0158683D01*
X0940937Y0161246D02*
X0940143Y0158281D01*
X0939203Y0157739D01*
X0937721Y0158136D01*
X0937178Y0159076D01*
X0935696Y0159473D02*
X0934756Y0158930D01*
X0933274Y0159328D01*
X0932731Y0160267D01*
X0932930Y0161009D01*
X0933869Y0161551D01*
X0936093Y0160955D01*
X0935696Y0159473D01*
X0936093Y0160955D02*
X0935008Y0162835D01*
X0933724Y0163973D01*
X0937972Y0162041D02*
X0938912Y0162583D01*
X0940395Y0162186D01*
X0940937Y0161246D01*
X0951606Y0172617D02*
X0952374Y0171850D01*
X0953908Y0171850D01*
X0954676Y0172617D01*
X0954676Y0173384D01*
X0953908Y0174152D01*
X0952374Y0174152D01*
X0951606Y0173384D01*
X0951606Y0172617D01*
X0952374Y0174152D02*
X0951606Y0174919D01*
X0951606Y0175686D01*
X0952374Y0176454D01*
X0953908Y0176454D01*
X0954676Y0175686D01*
X0954676Y0174919D01*
X0953908Y0174152D01*
X0956210Y0174152D02*
X0956978Y0173384D01*
X0959280Y0173384D01*
X0959280Y0171850D02*
X0959280Y0176454D01*
X0956978Y0176454D01*
X0956210Y0175686D01*
X0956210Y0174152D01*
X0957745Y0173384D02*
X0956210Y0171850D01*
X0944462Y0189724D02*
X0942927Y0189724D01*
X0942160Y0190491D01*
X0940625Y0192026D02*
X0937556Y0192026D01*
X0938323Y0194328D02*
X0940625Y0192026D01*
X0942160Y0193560D02*
X0942927Y0194328D01*
X0944462Y0194328D01*
X0945229Y0193560D01*
X0945229Y0190491D01*
X0944462Y0189724D01*
X0938323Y0189724D02*
X0938323Y0194328D01*
X0951606Y0197340D02*
X0954676Y0194270D01*
X0954676Y0193503D01*
X0956210Y0193503D02*
X0957745Y0195038D01*
X0956978Y0195038D02*
X0959280Y0195038D01*
X0959280Y0193503D02*
X0959280Y0198107D01*
X0956978Y0198107D01*
X0956210Y0197340D01*
X0956210Y0195805D01*
X0956978Y0195038D01*
X0954676Y0198107D02*
X0951606Y0198107D01*
X0951606Y0197340D01*
X0954342Y0211220D02*
X0955877Y0211220D01*
X0956644Y0211987D01*
X0953575Y0215056D01*
X0953575Y0211987D01*
X0954342Y0211220D01*
X0956644Y0211987D02*
X0956644Y0215056D01*
X0955877Y0215824D01*
X0954342Y0215824D01*
X0953575Y0215056D01*
X0958179Y0211220D02*
X0961248Y0211220D01*
X0959713Y0211220D02*
X0959713Y0215824D01*
X0961248Y0214289D01*
X0962783Y0215056D02*
X0962783Y0213522D01*
X0963550Y0212754D01*
X0965852Y0212754D01*
X0965852Y0211220D02*
X0965852Y0215824D01*
X0963550Y0215824D01*
X0962783Y0215056D01*
X0964317Y0212754D02*
X0962783Y0211220D01*
X0961248Y0232873D02*
X0961248Y0237477D01*
X0958946Y0237477D01*
X0958179Y0236710D01*
X0958179Y0235175D01*
X0958946Y0234408D01*
X0961248Y0234408D01*
X0959713Y0234408D02*
X0958179Y0232873D01*
X0956644Y0233641D02*
X0955877Y0232873D01*
X0954342Y0232873D01*
X0953575Y0233641D01*
X0953575Y0236710D01*
X0954342Y0237477D01*
X0955877Y0237477D01*
X0956644Y0236710D01*
X0956644Y0235943D01*
X0955877Y0235175D01*
X0953575Y0235175D01*
X0949166Y0234899D02*
X0949166Y0231830D01*
X0948399Y0231062D01*
X0946864Y0231062D01*
X0946097Y0231830D01*
X0944562Y0231830D02*
X0943795Y0231062D01*
X0942260Y0231062D01*
X0941493Y0231830D01*
X0941493Y0233364D01*
X0942260Y0234131D01*
X0943028Y0234131D01*
X0944562Y0233364D01*
X0944562Y0235666D01*
X0941493Y0235666D01*
X0946097Y0234899D02*
X0946864Y0235666D01*
X0948399Y0235666D01*
X0949166Y0234899D01*
X0946982Y0247134D02*
X0946042Y0247676D01*
X0945843Y0248418D01*
X0946386Y0249357D01*
X0948609Y0249953D01*
X0949006Y0248471D01*
X0948464Y0247531D01*
X0946982Y0247134D01*
X0948609Y0249953D02*
X0946730Y0251038D01*
X0945049Y0251382D01*
X0949694Y0251833D02*
X0950092Y0250350D01*
X0951031Y0249808D01*
X0953255Y0250404D01*
X0951773Y0250006D02*
X0950687Y0248127D01*
X0953652Y0248921D02*
X0952461Y0253368D01*
X0950237Y0252772D01*
X0949694Y0251833D01*
X0935837Y0260894D02*
X0934354Y0260497D01*
X0933415Y0261040D01*
X0931932Y0260643D02*
X0931390Y0259703D01*
X0929907Y0259306D01*
X0928968Y0259848D01*
X0928769Y0260589D01*
X0929312Y0261529D01*
X0930053Y0261728D01*
X0929312Y0261529D02*
X0928372Y0262072D01*
X0928173Y0262813D01*
X0928716Y0263753D01*
X0930198Y0264150D01*
X0931138Y0263607D01*
X0932620Y0264005D02*
X0933163Y0264944D01*
X0934645Y0265341D01*
X0935585Y0264799D01*
X0936379Y0261834D01*
X0935837Y0260894D01*
X0940437Y0268592D02*
X0941377Y0268050D01*
X0942860Y0268447D01*
X0943402Y0269386D01*
X0943005Y0270869D02*
X0941324Y0271213D01*
X0940583Y0271014D01*
X0940040Y0270074D01*
X0940437Y0268592D01*
X0943005Y0270869D02*
X0942409Y0273092D01*
X0939444Y0272298D01*
X0944090Y0272748D02*
X0944487Y0271266D01*
X0945427Y0270723D01*
X0947651Y0271319D01*
X0948048Y0269837D02*
X0946856Y0274284D01*
X0944633Y0273688D01*
X0944090Y0272748D01*
X0946168Y0270922D02*
X0945083Y0269043D01*
X0936656Y0284995D02*
X0935505Y0286989D01*
X0935786Y0288037D01*
X0937115Y0288804D01*
X0938163Y0288523D01*
X0939314Y0286530D01*
X0935327Y0284228D01*
X0935889Y0286324D02*
X0933792Y0286886D01*
X0933025Y0288215D02*
X0931490Y0290873D01*
X0932258Y0289544D02*
X0936245Y0291846D01*
X0935683Y0289750D01*
X0932717Y0293353D02*
X0931182Y0296011D01*
X0929572Y0294196D02*
X0933559Y0296497D01*
X0932717Y0293353D01*
X0926149Y0302187D02*
X0925101Y0302467D01*
X0924333Y0303797D01*
X0924614Y0304845D01*
X0923847Y0306174D02*
X0923182Y0305790D01*
X0923847Y0306174D02*
X0924970Y0310366D01*
X0925635Y0310750D01*
X0927170Y0308092D01*
X0927272Y0306379D02*
X0928321Y0306098D01*
X0929088Y0304769D01*
X0928807Y0303721D01*
X0926149Y0302187D01*
X0918595Y0313736D02*
X0922582Y0316038D01*
X0921431Y0318032D01*
X0920383Y0318313D01*
X0919054Y0317545D01*
X0918773Y0316497D01*
X0919924Y0314504D01*
X0919156Y0315833D02*
X0917060Y0316394D01*
X0916293Y0317723D02*
X0914758Y0320382D01*
X0915525Y0319053D02*
X0919512Y0321354D01*
X0918951Y0319258D01*
X0917313Y0323629D02*
X0917594Y0324677D01*
X0916827Y0326006D01*
X0915779Y0326287D01*
X0915114Y0325903D01*
X0914833Y0324855D01*
X0913785Y0325136D01*
X0913121Y0324752D01*
X0912840Y0323704D01*
X0913607Y0322375D01*
X0914655Y0322094D01*
X0915217Y0324191D02*
X0914833Y0324855D01*
X0907130Y0325672D02*
X0905502Y0327300D01*
X0904417Y0327300D01*
X0903331Y0326215D01*
X0903331Y0325130D01*
X0904959Y0323502D01*
X0903874Y0324587D02*
X0901704Y0324587D01*
X0900619Y0325672D02*
X0898448Y0327843D01*
X0899533Y0326757D02*
X0902789Y0330013D01*
X0902789Y0327843D01*
X0898991Y0330555D02*
X0897363Y0332183D01*
X0896278Y0332183D01*
X0895735Y0331641D01*
X0895735Y0330555D01*
X0896821Y0329470D01*
X0897906Y0329470D01*
X0898991Y0330555D01*
X0898991Y0332726D01*
X0898448Y0334353D01*
X0892668Y0339049D02*
X0890497Y0336879D01*
X0889412Y0336879D01*
X0888327Y0337964D01*
X0888327Y0339049D01*
X0887242Y0340134D02*
X0887784Y0340677D01*
X0887784Y0341762D01*
X0886699Y0342847D01*
X0885614Y0342847D01*
X0885071Y0342305D01*
X0885071Y0341219D01*
X0886157Y0340134D01*
X0887242Y0340134D01*
X0887784Y0341762D02*
X0888869Y0341762D01*
X0889412Y0342305D01*
X0889412Y0343390D01*
X0888327Y0344475D01*
X0887242Y0344475D01*
X0886699Y0343932D01*
X0886699Y0342847D01*
X0883841Y0344620D02*
X0882214Y0346248D01*
X0882214Y0347333D01*
X0883299Y0348418D01*
X0884384Y0348418D01*
X0886012Y0346790D01*
X0882756Y0343535D01*
X0882756Y0345705D02*
X0880586Y0345705D01*
X0879501Y0346790D02*
X0877330Y0348960D01*
X0878416Y0347875D02*
X0881671Y0351131D01*
X0881671Y0348960D01*
X0877873Y0351673D02*
X0877330Y0353301D01*
X0876788Y0353844D01*
X0875703Y0353844D01*
X0874617Y0352759D01*
X0874617Y0351673D01*
X0875703Y0350588D01*
X0876788Y0350588D01*
X0877873Y0351673D02*
X0879501Y0353301D01*
X0877330Y0355471D01*
X0890497Y0341219D02*
X0891582Y0341219D01*
X0892668Y0340134D01*
X0892668Y0339049D01*
X0907130Y0325672D02*
X0903874Y0322417D01*
X0275761Y0297536D02*
X0275761Y0292932D01*
X0275761Y0294467D02*
X0273459Y0294467D01*
X0272691Y0295234D01*
X0272691Y0296769D01*
X0273459Y0297536D01*
X0275761Y0297536D01*
X0274226Y0294467D02*
X0272691Y0292932D01*
X0271157Y0292932D02*
X0268087Y0292932D01*
X0266553Y0292932D02*
X0266553Y0293700D01*
X0263484Y0296769D01*
X0263484Y0297536D01*
X0266553Y0297536D01*
X0269622Y0297536D02*
X0269622Y0292932D01*
X0271157Y0296002D02*
X0269622Y0297536D01*
D12*
X0893918Y0336561D02*
X0894366Y0336113D01*
X0894814Y0336113D01*
X0895038Y0336337D01*
X0895038Y0336785D01*
X0894590Y0337233D01*
X0894142Y0337233D01*
X0893918Y0337009D01*
X0893918Y0336561D01*
X0894366Y0336113D01*
X0894814Y0336113D01*
X0895038Y0336337D01*
X0895038Y0336785D01*
X0895487Y0336785D01*
X0895711Y0337009D01*
X0895711Y0337457D01*
X0895263Y0337906D01*
X0894814Y0337906D01*
X0894590Y0337681D01*
X0894590Y0337233D01*
X0895038Y0336785D01*
X0895487Y0336785D01*
X0895711Y0337009D01*
X0895711Y0337457D01*
X0895263Y0337906D01*
X0894814Y0337906D01*
X0894590Y0337681D01*
X0894590Y0337233D01*
X0894142Y0337233D01*
X0893918Y0337009D01*
X0893918Y0336561D01*
X0895481Y0335446D02*
X0896601Y0336567D01*
X0895481Y0335446D01*
X0895481Y0334998D01*
X0895929Y0334550D01*
X0896377Y0334550D01*
X0897498Y0335671D01*
X0896377Y0334550D01*
X0895929Y0334550D01*
X0895481Y0334998D01*
X0895481Y0335446D01*
X0931249Y0300447D02*
X0930784Y0298715D01*
X0930510Y0298557D01*
X0930784Y0298715D01*
X0931249Y0300447D01*
X0931523Y0300606D01*
X0932157Y0299508D01*
X0931523Y0300606D01*
X0931249Y0300447D01*
X0932628Y0298692D02*
X0931256Y0297899D01*
X0931140Y0297466D01*
X0931456Y0296917D01*
X0931889Y0296801D01*
X0933262Y0297594D01*
X0931889Y0296801D01*
X0931456Y0296917D01*
X0931140Y0297466D01*
X0931256Y0297899D01*
X0932628Y0298692D01*
X0951238Y0262846D02*
X0951014Y0262458D01*
X0951178Y0261845D01*
X0951566Y0261621D01*
X0951178Y0261845D01*
X0951014Y0262458D01*
X0951238Y0262846D01*
X0951544Y0262928D01*
X0951932Y0262704D01*
X0952014Y0262397D01*
X0951932Y0262704D01*
X0952156Y0263092D01*
X0952462Y0263174D01*
X0952851Y0262950D01*
X0953015Y0262337D01*
X0952791Y0261949D01*
X0953015Y0262337D01*
X0952851Y0262950D01*
X0952462Y0263174D01*
X0952156Y0263092D01*
X0951932Y0262704D01*
X0951544Y0262928D01*
X0951238Y0262846D01*
X0951810Y0260711D02*
X0953340Y0261121D01*
X0951810Y0260711D01*
X0951586Y0260323D01*
X0951750Y0259711D01*
X0952138Y0259487D01*
X0953669Y0259897D01*
X0952138Y0259487D01*
X0951750Y0259711D01*
X0951586Y0260323D01*
X0951810Y0260711D01*
X0961155Y0225943D02*
X0960838Y0225626D01*
X0960838Y0224992D01*
X0961155Y0224675D01*
X0960838Y0224992D01*
X0960838Y0225626D01*
X0961155Y0225943D01*
X0961789Y0225943D01*
X0962106Y0225626D01*
X0962106Y0225309D01*
X0961789Y0224675D01*
X0962740Y0224675D01*
X0962740Y0225943D01*
X0962740Y0224675D01*
X0961789Y0224675D01*
X0962106Y0225309D01*
X0962106Y0225626D01*
X0961789Y0225943D01*
X0961155Y0225943D01*
X0961155Y0223733D02*
X0962740Y0223733D01*
X0961155Y0223733D01*
X0960838Y0223416D01*
X0960838Y0222782D01*
X0961155Y0222465D01*
X0962740Y0222465D01*
X0961155Y0222465D01*
X0960838Y0222782D01*
X0960838Y0223416D01*
X0961155Y0223733D01*
X0961789Y0186573D02*
X0961789Y0185305D01*
X0962740Y0186256D01*
X0960838Y0186256D01*
X0962740Y0186256D01*
X0961789Y0185305D01*
X0961789Y0186573D01*
X0961155Y0184363D02*
X0962740Y0184363D01*
X0961155Y0184363D01*
X0960838Y0184046D01*
X0960838Y0183412D01*
X0961155Y0183095D01*
X0962740Y0183095D01*
X0961155Y0183095D01*
X0960838Y0183412D01*
X0960838Y0184046D01*
X0961155Y0184363D01*
X0951830Y0150076D02*
X0953361Y0149666D01*
X0953585Y0149278D01*
X0953421Y0148666D01*
X0953033Y0148441D01*
X0951502Y0148852D01*
X0953033Y0148441D01*
X0953421Y0148666D01*
X0953585Y0149278D01*
X0953361Y0149666D01*
X0951830Y0150076D01*
X0952177Y0147695D02*
X0951400Y0147247D01*
X0950930Y0146717D01*
X0951400Y0147247D01*
X0952177Y0147695D01*
X0951931Y0146777D01*
X0952155Y0146389D01*
X0952461Y0146307D01*
X0952849Y0146531D01*
X0953013Y0147143D01*
X0952789Y0147531D01*
X0952177Y0147695D01*
X0951931Y0146777D01*
X0952155Y0146389D01*
X0952461Y0146307D01*
X0952849Y0146531D01*
X0953013Y0147143D01*
X0952789Y0147531D01*
X0952177Y0147695D01*
X0931614Y0112838D02*
X0932986Y0112046D01*
X0933102Y0111613D01*
X0932785Y0111064D01*
X0932352Y0110948D01*
X0930980Y0111740D01*
X0932352Y0110948D01*
X0932785Y0111064D01*
X0933102Y0111613D01*
X0932986Y0112046D01*
X0931614Y0112838D01*
X0930783Y0110766D02*
X0930350Y0110650D01*
X0930033Y0110101D01*
X0930149Y0109668D01*
X0930424Y0109509D01*
X0932155Y0109973D01*
X0931522Y0108876D01*
X0932155Y0109973D01*
X0930424Y0109509D01*
X0930149Y0109668D01*
X0930033Y0110101D01*
X0930350Y0110650D01*
X0930783Y0110766D01*
X0896152Y0075155D02*
X0897272Y0074035D01*
X0897272Y0073587D01*
X0896824Y0073138D01*
X0896376Y0073138D01*
X0895255Y0074259D01*
X0896376Y0073138D01*
X0896824Y0073138D01*
X0897272Y0073587D01*
X0897272Y0074035D01*
X0896152Y0075155D01*
X0895037Y0073145D02*
X0894141Y0073145D01*
X0895486Y0071800D01*
X0894141Y0073145D01*
X0895037Y0073145D01*
X0895934Y0072248D02*
X0895037Y0071352D01*
X0895934Y0072248D01*
D13*
X0892430Y0067957D02*
X0893265Y0067122D01*
X0892430Y0067957D02*
X0900477Y0076004D01*
X0901387Y0075093D01*
X0910076Y0067148D02*
X0910093Y0065275D01*
X0902602Y0057784D01*
X0901692Y0058695D01*
X0941226Y0098372D02*
X0942340Y0097729D01*
X0947637Y0106902D01*
X0947136Y0108707D01*
X0936687Y0114133D02*
X0935572Y0114777D01*
X0929882Y0104922D01*
X0930905Y0104331D01*
X0964859Y0138591D02*
X0966102Y0138258D01*
X0968844Y0148489D01*
X0967893Y0150104D01*
X0956395Y0152640D02*
X0955152Y0152973D01*
X0952207Y0141981D01*
X0953347Y0141676D01*
X0963295Y0179293D02*
X0964476Y0179293D01*
X0963295Y0179293D02*
X0963295Y0190673D01*
X0964583Y0190673D01*
X0976344Y0191199D02*
X0977681Y0189886D01*
X0977681Y0179293D01*
X0976394Y0179293D01*
X0976394Y0218663D02*
X0977681Y0218663D01*
X0977681Y0229256D01*
X0976344Y0230569D01*
X0964583Y0230043D02*
X0963295Y0230043D01*
X0963295Y0218663D01*
X0964476Y0218663D01*
X0955189Y0256368D02*
X0956330Y0256674D01*
X0955189Y0256368D02*
X0952244Y0267360D01*
X0953487Y0267693D01*
X0964712Y0271245D02*
X0966343Y0270323D01*
X0969085Y0260091D01*
X0967841Y0259758D01*
X0936667Y0295170D02*
X0935644Y0294579D01*
X0929954Y0304434D01*
X0931069Y0305078D01*
X0940992Y0311414D02*
X0942806Y0310945D01*
X0948102Y0301772D01*
X0946987Y0301128D01*
X0901414Y0334210D02*
X0900579Y0333375D01*
X0892532Y0341422D01*
X0893442Y0342332D01*
X0903261Y0351037D02*
X0910751Y0343547D01*
X0909841Y0342637D01*
X0903261Y0351037D02*
X0901387Y0351021D01*
D14*
X0901237Y0352435D03*
X0941213Y0312819D03*
X0965289Y0272545D03*
X0977238Y0231675D03*
X0977238Y0192305D03*
X0969042Y0150941D03*
X0948463Y0109219D03*
X0911490Y0067298D03*
M02*
