G75*
%MOIN*%
%OFA0B0*%
%FSLAX25Y25*%
%IPPOS*%
%LPD*%
%AMOC8*
5,1,8,0,0,1.08239X$1,22.5*
%
%ADD10C,0.00000*%
%ADD11C,0.00600*%
%ADD12C,0.02000*%
%ADD13C,0.00500*%
%ADD14R,0.42000X0.03000*%
%ADD15R,0.07500X0.02000*%
%ADD16R,0.13000X0.02000*%
%ADD17C,0.00800*%
%ADD18C,0.00200*%
%ADD19C,0.00700*%
%ADD20R,0.02500X0.03000*%
%ADD21R,0.11000X0.05000*%
D10*
X0057102Y0033480D02*
X0057104Y0033605D01*
X0057110Y0033730D01*
X0057120Y0033854D01*
X0057134Y0033978D01*
X0057151Y0034102D01*
X0057173Y0034225D01*
X0057199Y0034347D01*
X0057228Y0034469D01*
X0057261Y0034589D01*
X0057299Y0034708D01*
X0057339Y0034827D01*
X0057384Y0034943D01*
X0057432Y0035058D01*
X0057484Y0035172D01*
X0057540Y0035284D01*
X0057599Y0035394D01*
X0057661Y0035502D01*
X0057727Y0035609D01*
X0057796Y0035713D01*
X0057869Y0035814D01*
X0057944Y0035914D01*
X0058023Y0036011D01*
X0058105Y0036105D01*
X0058190Y0036197D01*
X0058277Y0036286D01*
X0058368Y0036372D01*
X0058461Y0036455D01*
X0058557Y0036536D01*
X0058655Y0036613D01*
X0058755Y0036687D01*
X0058858Y0036758D01*
X0058963Y0036825D01*
X0059071Y0036890D01*
X0059180Y0036950D01*
X0059291Y0037008D01*
X0059404Y0037061D01*
X0059518Y0037111D01*
X0059634Y0037158D01*
X0059751Y0037200D01*
X0059870Y0037239D01*
X0059990Y0037275D01*
X0060111Y0037306D01*
X0060233Y0037334D01*
X0060355Y0037357D01*
X0060479Y0037377D01*
X0060603Y0037393D01*
X0060727Y0037405D01*
X0060852Y0037413D01*
X0060977Y0037417D01*
X0061101Y0037417D01*
X0061226Y0037413D01*
X0061351Y0037405D01*
X0061475Y0037393D01*
X0061599Y0037377D01*
X0061723Y0037357D01*
X0061845Y0037334D01*
X0061967Y0037306D01*
X0062088Y0037275D01*
X0062208Y0037239D01*
X0062327Y0037200D01*
X0062444Y0037158D01*
X0062560Y0037111D01*
X0062674Y0037061D01*
X0062787Y0037008D01*
X0062898Y0036950D01*
X0063008Y0036890D01*
X0063115Y0036825D01*
X0063220Y0036758D01*
X0063323Y0036687D01*
X0063423Y0036613D01*
X0063521Y0036536D01*
X0063617Y0036455D01*
X0063710Y0036372D01*
X0063801Y0036286D01*
X0063888Y0036197D01*
X0063973Y0036105D01*
X0064055Y0036011D01*
X0064134Y0035914D01*
X0064209Y0035814D01*
X0064282Y0035713D01*
X0064351Y0035609D01*
X0064417Y0035502D01*
X0064479Y0035394D01*
X0064538Y0035284D01*
X0064594Y0035172D01*
X0064646Y0035058D01*
X0064694Y0034943D01*
X0064739Y0034827D01*
X0064779Y0034708D01*
X0064817Y0034589D01*
X0064850Y0034469D01*
X0064879Y0034347D01*
X0064905Y0034225D01*
X0064927Y0034102D01*
X0064944Y0033978D01*
X0064958Y0033854D01*
X0064968Y0033730D01*
X0064974Y0033605D01*
X0064976Y0033480D01*
X0064974Y0033355D01*
X0064968Y0033230D01*
X0064958Y0033106D01*
X0064944Y0032982D01*
X0064927Y0032858D01*
X0064905Y0032735D01*
X0064879Y0032613D01*
X0064850Y0032491D01*
X0064817Y0032371D01*
X0064779Y0032252D01*
X0064739Y0032133D01*
X0064694Y0032017D01*
X0064646Y0031902D01*
X0064594Y0031788D01*
X0064538Y0031676D01*
X0064479Y0031566D01*
X0064417Y0031458D01*
X0064351Y0031351D01*
X0064282Y0031247D01*
X0064209Y0031146D01*
X0064134Y0031046D01*
X0064055Y0030949D01*
X0063973Y0030855D01*
X0063888Y0030763D01*
X0063801Y0030674D01*
X0063710Y0030588D01*
X0063617Y0030505D01*
X0063521Y0030424D01*
X0063423Y0030347D01*
X0063323Y0030273D01*
X0063220Y0030202D01*
X0063115Y0030135D01*
X0063007Y0030070D01*
X0062898Y0030010D01*
X0062787Y0029952D01*
X0062674Y0029899D01*
X0062560Y0029849D01*
X0062444Y0029802D01*
X0062327Y0029760D01*
X0062208Y0029721D01*
X0062088Y0029685D01*
X0061967Y0029654D01*
X0061845Y0029626D01*
X0061723Y0029603D01*
X0061599Y0029583D01*
X0061475Y0029567D01*
X0061351Y0029555D01*
X0061226Y0029547D01*
X0061101Y0029543D01*
X0060977Y0029543D01*
X0060852Y0029547D01*
X0060727Y0029555D01*
X0060603Y0029567D01*
X0060479Y0029583D01*
X0060355Y0029603D01*
X0060233Y0029626D01*
X0060111Y0029654D01*
X0059990Y0029685D01*
X0059870Y0029721D01*
X0059751Y0029760D01*
X0059634Y0029802D01*
X0059518Y0029849D01*
X0059404Y0029899D01*
X0059291Y0029952D01*
X0059180Y0030010D01*
X0059070Y0030070D01*
X0058963Y0030135D01*
X0058858Y0030202D01*
X0058755Y0030273D01*
X0058655Y0030347D01*
X0058557Y0030424D01*
X0058461Y0030505D01*
X0058368Y0030588D01*
X0058277Y0030674D01*
X0058190Y0030763D01*
X0058105Y0030855D01*
X0058023Y0030949D01*
X0057944Y0031046D01*
X0057869Y0031146D01*
X0057796Y0031247D01*
X0057727Y0031351D01*
X0057661Y0031458D01*
X0057599Y0031566D01*
X0057540Y0031676D01*
X0057484Y0031788D01*
X0057432Y0031902D01*
X0057384Y0032017D01*
X0057339Y0032133D01*
X0057299Y0032252D01*
X0057261Y0032371D01*
X0057228Y0032491D01*
X0057199Y0032613D01*
X0057173Y0032735D01*
X0057151Y0032858D01*
X0057134Y0032982D01*
X0057120Y0033106D01*
X0057110Y0033230D01*
X0057104Y0033355D01*
X0057102Y0033480D01*
X0127969Y0033480D02*
X0127971Y0033605D01*
X0127977Y0033730D01*
X0127987Y0033854D01*
X0128001Y0033978D01*
X0128018Y0034102D01*
X0128040Y0034225D01*
X0128066Y0034347D01*
X0128095Y0034469D01*
X0128128Y0034589D01*
X0128166Y0034708D01*
X0128206Y0034827D01*
X0128251Y0034943D01*
X0128299Y0035058D01*
X0128351Y0035172D01*
X0128407Y0035284D01*
X0128466Y0035394D01*
X0128528Y0035502D01*
X0128594Y0035609D01*
X0128663Y0035713D01*
X0128736Y0035814D01*
X0128811Y0035914D01*
X0128890Y0036011D01*
X0128972Y0036105D01*
X0129057Y0036197D01*
X0129144Y0036286D01*
X0129235Y0036372D01*
X0129328Y0036455D01*
X0129424Y0036536D01*
X0129522Y0036613D01*
X0129622Y0036687D01*
X0129725Y0036758D01*
X0129830Y0036825D01*
X0129938Y0036890D01*
X0130047Y0036950D01*
X0130158Y0037008D01*
X0130271Y0037061D01*
X0130385Y0037111D01*
X0130501Y0037158D01*
X0130618Y0037200D01*
X0130737Y0037239D01*
X0130857Y0037275D01*
X0130978Y0037306D01*
X0131100Y0037334D01*
X0131222Y0037357D01*
X0131346Y0037377D01*
X0131470Y0037393D01*
X0131594Y0037405D01*
X0131719Y0037413D01*
X0131844Y0037417D01*
X0131968Y0037417D01*
X0132093Y0037413D01*
X0132218Y0037405D01*
X0132342Y0037393D01*
X0132466Y0037377D01*
X0132590Y0037357D01*
X0132712Y0037334D01*
X0132834Y0037306D01*
X0132955Y0037275D01*
X0133075Y0037239D01*
X0133194Y0037200D01*
X0133311Y0037158D01*
X0133427Y0037111D01*
X0133541Y0037061D01*
X0133654Y0037008D01*
X0133765Y0036950D01*
X0133875Y0036890D01*
X0133982Y0036825D01*
X0134087Y0036758D01*
X0134190Y0036687D01*
X0134290Y0036613D01*
X0134388Y0036536D01*
X0134484Y0036455D01*
X0134577Y0036372D01*
X0134668Y0036286D01*
X0134755Y0036197D01*
X0134840Y0036105D01*
X0134922Y0036011D01*
X0135001Y0035914D01*
X0135076Y0035814D01*
X0135149Y0035713D01*
X0135218Y0035609D01*
X0135284Y0035502D01*
X0135346Y0035394D01*
X0135405Y0035284D01*
X0135461Y0035172D01*
X0135513Y0035058D01*
X0135561Y0034943D01*
X0135606Y0034827D01*
X0135646Y0034708D01*
X0135684Y0034589D01*
X0135717Y0034469D01*
X0135746Y0034347D01*
X0135772Y0034225D01*
X0135794Y0034102D01*
X0135811Y0033978D01*
X0135825Y0033854D01*
X0135835Y0033730D01*
X0135841Y0033605D01*
X0135843Y0033480D01*
X0135841Y0033355D01*
X0135835Y0033230D01*
X0135825Y0033106D01*
X0135811Y0032982D01*
X0135794Y0032858D01*
X0135772Y0032735D01*
X0135746Y0032613D01*
X0135717Y0032491D01*
X0135684Y0032371D01*
X0135646Y0032252D01*
X0135606Y0032133D01*
X0135561Y0032017D01*
X0135513Y0031902D01*
X0135461Y0031788D01*
X0135405Y0031676D01*
X0135346Y0031566D01*
X0135284Y0031458D01*
X0135218Y0031351D01*
X0135149Y0031247D01*
X0135076Y0031146D01*
X0135001Y0031046D01*
X0134922Y0030949D01*
X0134840Y0030855D01*
X0134755Y0030763D01*
X0134668Y0030674D01*
X0134577Y0030588D01*
X0134484Y0030505D01*
X0134388Y0030424D01*
X0134290Y0030347D01*
X0134190Y0030273D01*
X0134087Y0030202D01*
X0133982Y0030135D01*
X0133874Y0030070D01*
X0133765Y0030010D01*
X0133654Y0029952D01*
X0133541Y0029899D01*
X0133427Y0029849D01*
X0133311Y0029802D01*
X0133194Y0029760D01*
X0133075Y0029721D01*
X0132955Y0029685D01*
X0132834Y0029654D01*
X0132712Y0029626D01*
X0132590Y0029603D01*
X0132466Y0029583D01*
X0132342Y0029567D01*
X0132218Y0029555D01*
X0132093Y0029547D01*
X0131968Y0029543D01*
X0131844Y0029543D01*
X0131719Y0029547D01*
X0131594Y0029555D01*
X0131470Y0029567D01*
X0131346Y0029583D01*
X0131222Y0029603D01*
X0131100Y0029626D01*
X0130978Y0029654D01*
X0130857Y0029685D01*
X0130737Y0029721D01*
X0130618Y0029760D01*
X0130501Y0029802D01*
X0130385Y0029849D01*
X0130271Y0029899D01*
X0130158Y0029952D01*
X0130047Y0030010D01*
X0129937Y0030070D01*
X0129830Y0030135D01*
X0129725Y0030202D01*
X0129622Y0030273D01*
X0129522Y0030347D01*
X0129424Y0030424D01*
X0129328Y0030505D01*
X0129235Y0030588D01*
X0129144Y0030674D01*
X0129057Y0030763D01*
X0128972Y0030855D01*
X0128890Y0030949D01*
X0128811Y0031046D01*
X0128736Y0031146D01*
X0128663Y0031247D01*
X0128594Y0031351D01*
X0128528Y0031458D01*
X0128466Y0031566D01*
X0128407Y0031676D01*
X0128351Y0031788D01*
X0128299Y0031902D01*
X0128251Y0032017D01*
X0128206Y0032133D01*
X0128166Y0032252D01*
X0128128Y0032371D01*
X0128095Y0032491D01*
X0128066Y0032613D01*
X0128040Y0032735D01*
X0128018Y0032858D01*
X0128001Y0032982D01*
X0127987Y0033106D01*
X0127977Y0033230D01*
X0127971Y0033355D01*
X0127969Y0033480D01*
X0033480Y0198835D02*
X0033501Y0200526D01*
X0033563Y0202216D01*
X0033667Y0203903D01*
X0033812Y0205588D01*
X0033998Y0207269D01*
X0034226Y0208944D01*
X0034494Y0210614D01*
X0034804Y0212276D01*
X0035154Y0213931D01*
X0035545Y0215576D01*
X0035976Y0217211D01*
X0036447Y0218835D01*
X0036957Y0220447D01*
X0037507Y0222046D01*
X0038097Y0223631D01*
X0038725Y0225201D01*
X0039391Y0226755D01*
X0040095Y0228293D01*
X0040837Y0229812D01*
X0041615Y0231313D01*
X0042431Y0232795D01*
X0043282Y0234256D01*
X0044169Y0235695D01*
X0045091Y0237113D01*
X0046048Y0238507D01*
X0047039Y0239877D01*
X0048063Y0241223D01*
X0049119Y0242543D01*
X0050208Y0243837D01*
X0051328Y0245104D01*
X0052479Y0246343D01*
X0053660Y0247553D01*
X0054870Y0248734D01*
X0056109Y0249885D01*
X0057376Y0251005D01*
X0058670Y0252094D01*
X0059990Y0253150D01*
X0061336Y0254174D01*
X0062706Y0255165D01*
X0064100Y0256122D01*
X0065518Y0257044D01*
X0066957Y0257931D01*
X0068418Y0258782D01*
X0069900Y0259598D01*
X0071401Y0260376D01*
X0072920Y0261118D01*
X0074458Y0261822D01*
X0076012Y0262488D01*
X0077582Y0263116D01*
X0079167Y0263706D01*
X0080766Y0264256D01*
X0082378Y0264766D01*
X0084002Y0265237D01*
X0085637Y0265668D01*
X0087282Y0266059D01*
X0088937Y0266409D01*
X0090599Y0266719D01*
X0092269Y0266987D01*
X0093944Y0267215D01*
X0095625Y0267401D01*
X0097310Y0267546D01*
X0098997Y0267650D01*
X0100687Y0267712D01*
X0102378Y0267733D01*
X0104069Y0267712D01*
X0105759Y0267650D01*
X0107446Y0267546D01*
X0109131Y0267401D01*
X0110812Y0267215D01*
X0112487Y0266987D01*
X0114157Y0266719D01*
X0115819Y0266409D01*
X0117474Y0266059D01*
X0119119Y0265668D01*
X0120754Y0265237D01*
X0122378Y0264766D01*
X0123990Y0264256D01*
X0125589Y0263706D01*
X0127174Y0263116D01*
X0128744Y0262488D01*
X0130298Y0261822D01*
X0131836Y0261118D01*
X0133355Y0260376D01*
X0134856Y0259598D01*
X0136338Y0258782D01*
X0137799Y0257931D01*
X0139238Y0257044D01*
X0140656Y0256122D01*
X0142050Y0255165D01*
X0143420Y0254174D01*
X0144766Y0253150D01*
X0146086Y0252094D01*
X0147380Y0251005D01*
X0148647Y0249885D01*
X0149886Y0248734D01*
X0151096Y0247553D01*
X0152277Y0246343D01*
X0153428Y0245104D01*
X0154548Y0243837D01*
X0155637Y0242543D01*
X0156693Y0241223D01*
X0157717Y0239877D01*
X0158708Y0238507D01*
X0159665Y0237113D01*
X0160587Y0235695D01*
X0161474Y0234256D01*
X0162325Y0232795D01*
X0163141Y0231313D01*
X0163919Y0229812D01*
X0164661Y0228293D01*
X0165365Y0226755D01*
X0166031Y0225201D01*
X0166659Y0223631D01*
X0167249Y0222046D01*
X0167799Y0220447D01*
X0168309Y0218835D01*
X0168780Y0217211D01*
X0169211Y0215576D01*
X0169602Y0213931D01*
X0169952Y0212276D01*
X0170262Y0210614D01*
X0170530Y0208944D01*
X0170758Y0207269D01*
X0170944Y0205588D01*
X0171089Y0203903D01*
X0171193Y0202216D01*
X0171255Y0200526D01*
X0171276Y0198835D01*
X0171255Y0197144D01*
X0171193Y0195454D01*
X0171089Y0193767D01*
X0170944Y0192082D01*
X0170758Y0190401D01*
X0170530Y0188726D01*
X0170262Y0187056D01*
X0169952Y0185394D01*
X0169602Y0183739D01*
X0169211Y0182094D01*
X0168780Y0180459D01*
X0168309Y0178835D01*
X0167799Y0177223D01*
X0167249Y0175624D01*
X0166659Y0174039D01*
X0166031Y0172469D01*
X0165365Y0170915D01*
X0164661Y0169377D01*
X0163919Y0167858D01*
X0163141Y0166357D01*
X0162325Y0164875D01*
X0161474Y0163414D01*
X0160587Y0161975D01*
X0159665Y0160557D01*
X0158708Y0159163D01*
X0157717Y0157793D01*
X0156693Y0156447D01*
X0155637Y0155127D01*
X0154548Y0153833D01*
X0153428Y0152566D01*
X0152277Y0151327D01*
X0151096Y0150117D01*
X0149886Y0148936D01*
X0148647Y0147785D01*
X0147380Y0146665D01*
X0146086Y0145576D01*
X0144766Y0144520D01*
X0143420Y0143496D01*
X0142050Y0142505D01*
X0140656Y0141548D01*
X0139238Y0140626D01*
X0137799Y0139739D01*
X0136338Y0138888D01*
X0134856Y0138072D01*
X0133355Y0137294D01*
X0131836Y0136552D01*
X0130298Y0135848D01*
X0128744Y0135182D01*
X0127174Y0134554D01*
X0125589Y0133964D01*
X0123990Y0133414D01*
X0122378Y0132904D01*
X0120754Y0132433D01*
X0119119Y0132002D01*
X0117474Y0131611D01*
X0115819Y0131261D01*
X0114157Y0130951D01*
X0112487Y0130683D01*
X0110812Y0130455D01*
X0109131Y0130269D01*
X0107446Y0130124D01*
X0105759Y0130020D01*
X0104069Y0129958D01*
X0102378Y0129937D01*
X0100687Y0129958D01*
X0098997Y0130020D01*
X0097310Y0130124D01*
X0095625Y0130269D01*
X0093944Y0130455D01*
X0092269Y0130683D01*
X0090599Y0130951D01*
X0088937Y0131261D01*
X0087282Y0131611D01*
X0085637Y0132002D01*
X0084002Y0132433D01*
X0082378Y0132904D01*
X0080766Y0133414D01*
X0079167Y0133964D01*
X0077582Y0134554D01*
X0076012Y0135182D01*
X0074458Y0135848D01*
X0072920Y0136552D01*
X0071401Y0137294D01*
X0069900Y0138072D01*
X0068418Y0138888D01*
X0066957Y0139739D01*
X0065518Y0140626D01*
X0064100Y0141548D01*
X0062706Y0142505D01*
X0061336Y0143496D01*
X0059990Y0144520D01*
X0058670Y0145576D01*
X0057376Y0146665D01*
X0056109Y0147785D01*
X0054870Y0148936D01*
X0053660Y0150117D01*
X0052479Y0151327D01*
X0051328Y0152566D01*
X0050208Y0153833D01*
X0049119Y0155127D01*
X0048063Y0156447D01*
X0047039Y0157793D01*
X0046048Y0159163D01*
X0045091Y0160557D01*
X0044169Y0161975D01*
X0043282Y0163414D01*
X0042431Y0164875D01*
X0041615Y0166357D01*
X0040837Y0167858D01*
X0040095Y0169377D01*
X0039391Y0170915D01*
X0038725Y0172469D01*
X0038097Y0174039D01*
X0037507Y0175624D01*
X0036957Y0177223D01*
X0036447Y0178835D01*
X0035976Y0180459D01*
X0035545Y0182094D01*
X0035154Y0183739D01*
X0034804Y0185394D01*
X0034494Y0187056D01*
X0034226Y0188726D01*
X0033998Y0190401D01*
X0033812Y0192082D01*
X0033667Y0193767D01*
X0033563Y0195454D01*
X0033501Y0197144D01*
X0033480Y0198835D01*
X0338264Y0333087D02*
X0338266Y0333248D01*
X0338272Y0333408D01*
X0338282Y0333569D01*
X0338296Y0333729D01*
X0338314Y0333889D01*
X0338335Y0334048D01*
X0338361Y0334207D01*
X0338391Y0334365D01*
X0338424Y0334522D01*
X0338462Y0334679D01*
X0338503Y0334834D01*
X0338548Y0334988D01*
X0338597Y0335141D01*
X0338650Y0335293D01*
X0338706Y0335444D01*
X0338767Y0335593D01*
X0338830Y0335741D01*
X0338898Y0335887D01*
X0338969Y0336031D01*
X0339043Y0336173D01*
X0339121Y0336314D01*
X0339203Y0336452D01*
X0339288Y0336589D01*
X0339376Y0336723D01*
X0339468Y0336855D01*
X0339563Y0336985D01*
X0339661Y0337113D01*
X0339762Y0337238D01*
X0339866Y0337360D01*
X0339973Y0337480D01*
X0340083Y0337597D01*
X0340196Y0337712D01*
X0340312Y0337823D01*
X0340431Y0337932D01*
X0340552Y0338037D01*
X0340676Y0338140D01*
X0340802Y0338240D01*
X0340930Y0338336D01*
X0341061Y0338429D01*
X0341195Y0338519D01*
X0341330Y0338606D01*
X0341468Y0338689D01*
X0341607Y0338769D01*
X0341749Y0338845D01*
X0341892Y0338918D01*
X0342037Y0338987D01*
X0342184Y0339053D01*
X0342332Y0339115D01*
X0342482Y0339173D01*
X0342633Y0339228D01*
X0342786Y0339279D01*
X0342940Y0339326D01*
X0343095Y0339369D01*
X0343251Y0339408D01*
X0343407Y0339444D01*
X0343565Y0339475D01*
X0343723Y0339503D01*
X0343882Y0339527D01*
X0344042Y0339547D01*
X0344202Y0339563D01*
X0344362Y0339575D01*
X0344523Y0339583D01*
X0344684Y0339587D01*
X0344844Y0339587D01*
X0345005Y0339583D01*
X0345166Y0339575D01*
X0345326Y0339563D01*
X0345486Y0339547D01*
X0345646Y0339527D01*
X0345805Y0339503D01*
X0345963Y0339475D01*
X0346121Y0339444D01*
X0346277Y0339408D01*
X0346433Y0339369D01*
X0346588Y0339326D01*
X0346742Y0339279D01*
X0346895Y0339228D01*
X0347046Y0339173D01*
X0347196Y0339115D01*
X0347344Y0339053D01*
X0347491Y0338987D01*
X0347636Y0338918D01*
X0347779Y0338845D01*
X0347921Y0338769D01*
X0348060Y0338689D01*
X0348198Y0338606D01*
X0348333Y0338519D01*
X0348467Y0338429D01*
X0348598Y0338336D01*
X0348726Y0338240D01*
X0348852Y0338140D01*
X0348976Y0338037D01*
X0349097Y0337932D01*
X0349216Y0337823D01*
X0349332Y0337712D01*
X0349445Y0337597D01*
X0349555Y0337480D01*
X0349662Y0337360D01*
X0349766Y0337238D01*
X0349867Y0337113D01*
X0349965Y0336985D01*
X0350060Y0336855D01*
X0350152Y0336723D01*
X0350240Y0336589D01*
X0350325Y0336452D01*
X0350407Y0336314D01*
X0350485Y0336173D01*
X0350559Y0336031D01*
X0350630Y0335887D01*
X0350698Y0335741D01*
X0350761Y0335593D01*
X0350822Y0335444D01*
X0350878Y0335293D01*
X0350931Y0335141D01*
X0350980Y0334988D01*
X0351025Y0334834D01*
X0351066Y0334679D01*
X0351104Y0334522D01*
X0351137Y0334365D01*
X0351167Y0334207D01*
X0351193Y0334048D01*
X0351214Y0333889D01*
X0351232Y0333729D01*
X0351246Y0333569D01*
X0351256Y0333408D01*
X0351262Y0333248D01*
X0351264Y0333087D01*
X0351262Y0332926D01*
X0351256Y0332766D01*
X0351246Y0332605D01*
X0351232Y0332445D01*
X0351214Y0332285D01*
X0351193Y0332126D01*
X0351167Y0331967D01*
X0351137Y0331809D01*
X0351104Y0331652D01*
X0351066Y0331495D01*
X0351025Y0331340D01*
X0350980Y0331186D01*
X0350931Y0331033D01*
X0350878Y0330881D01*
X0350822Y0330730D01*
X0350761Y0330581D01*
X0350698Y0330433D01*
X0350630Y0330287D01*
X0350559Y0330143D01*
X0350485Y0330001D01*
X0350407Y0329860D01*
X0350325Y0329722D01*
X0350240Y0329585D01*
X0350152Y0329451D01*
X0350060Y0329319D01*
X0349965Y0329189D01*
X0349867Y0329061D01*
X0349766Y0328936D01*
X0349662Y0328814D01*
X0349555Y0328694D01*
X0349445Y0328577D01*
X0349332Y0328462D01*
X0349216Y0328351D01*
X0349097Y0328242D01*
X0348976Y0328137D01*
X0348852Y0328034D01*
X0348726Y0327934D01*
X0348598Y0327838D01*
X0348467Y0327745D01*
X0348333Y0327655D01*
X0348198Y0327568D01*
X0348060Y0327485D01*
X0347921Y0327405D01*
X0347779Y0327329D01*
X0347636Y0327256D01*
X0347491Y0327187D01*
X0347344Y0327121D01*
X0347196Y0327059D01*
X0347046Y0327001D01*
X0346895Y0326946D01*
X0346742Y0326895D01*
X0346588Y0326848D01*
X0346433Y0326805D01*
X0346277Y0326766D01*
X0346121Y0326730D01*
X0345963Y0326699D01*
X0345805Y0326671D01*
X0345646Y0326647D01*
X0345486Y0326627D01*
X0345326Y0326611D01*
X0345166Y0326599D01*
X0345005Y0326591D01*
X0344844Y0326587D01*
X0344684Y0326587D01*
X0344523Y0326591D01*
X0344362Y0326599D01*
X0344202Y0326611D01*
X0344042Y0326627D01*
X0343882Y0326647D01*
X0343723Y0326671D01*
X0343565Y0326699D01*
X0343407Y0326730D01*
X0343251Y0326766D01*
X0343095Y0326805D01*
X0342940Y0326848D01*
X0342786Y0326895D01*
X0342633Y0326946D01*
X0342482Y0327001D01*
X0342332Y0327059D01*
X0342184Y0327121D01*
X0342037Y0327187D01*
X0341892Y0327256D01*
X0341749Y0327329D01*
X0341607Y0327405D01*
X0341468Y0327485D01*
X0341330Y0327568D01*
X0341195Y0327655D01*
X0341061Y0327745D01*
X0340930Y0327838D01*
X0340802Y0327934D01*
X0340676Y0328034D01*
X0340552Y0328137D01*
X0340431Y0328242D01*
X0340312Y0328351D01*
X0340196Y0328462D01*
X0340083Y0328577D01*
X0339973Y0328694D01*
X0339866Y0328814D01*
X0339762Y0328936D01*
X0339661Y0329061D01*
X0339563Y0329189D01*
X0339468Y0329319D01*
X0339376Y0329451D01*
X0339288Y0329585D01*
X0339203Y0329722D01*
X0339121Y0329860D01*
X0339043Y0330001D01*
X0338969Y0330143D01*
X0338898Y0330287D01*
X0338830Y0330433D01*
X0338767Y0330581D01*
X0338706Y0330730D01*
X0338650Y0330881D01*
X0338597Y0331033D01*
X0338548Y0331186D01*
X0338503Y0331340D01*
X0338462Y0331495D01*
X0338424Y0331652D01*
X0338391Y0331809D01*
X0338361Y0331967D01*
X0338335Y0332126D01*
X0338314Y0332285D01*
X0338296Y0332445D01*
X0338282Y0332605D01*
X0338272Y0332766D01*
X0338266Y0332926D01*
X0338264Y0333087D01*
X0127969Y0364189D02*
X0127971Y0364314D01*
X0127977Y0364439D01*
X0127987Y0364563D01*
X0128001Y0364687D01*
X0128018Y0364811D01*
X0128040Y0364934D01*
X0128066Y0365056D01*
X0128095Y0365178D01*
X0128128Y0365298D01*
X0128166Y0365417D01*
X0128206Y0365536D01*
X0128251Y0365652D01*
X0128299Y0365767D01*
X0128351Y0365881D01*
X0128407Y0365993D01*
X0128466Y0366103D01*
X0128528Y0366211D01*
X0128594Y0366318D01*
X0128663Y0366422D01*
X0128736Y0366523D01*
X0128811Y0366623D01*
X0128890Y0366720D01*
X0128972Y0366814D01*
X0129057Y0366906D01*
X0129144Y0366995D01*
X0129235Y0367081D01*
X0129328Y0367164D01*
X0129424Y0367245D01*
X0129522Y0367322D01*
X0129622Y0367396D01*
X0129725Y0367467D01*
X0129830Y0367534D01*
X0129938Y0367599D01*
X0130047Y0367659D01*
X0130158Y0367717D01*
X0130271Y0367770D01*
X0130385Y0367820D01*
X0130501Y0367867D01*
X0130618Y0367909D01*
X0130737Y0367948D01*
X0130857Y0367984D01*
X0130978Y0368015D01*
X0131100Y0368043D01*
X0131222Y0368066D01*
X0131346Y0368086D01*
X0131470Y0368102D01*
X0131594Y0368114D01*
X0131719Y0368122D01*
X0131844Y0368126D01*
X0131968Y0368126D01*
X0132093Y0368122D01*
X0132218Y0368114D01*
X0132342Y0368102D01*
X0132466Y0368086D01*
X0132590Y0368066D01*
X0132712Y0368043D01*
X0132834Y0368015D01*
X0132955Y0367984D01*
X0133075Y0367948D01*
X0133194Y0367909D01*
X0133311Y0367867D01*
X0133427Y0367820D01*
X0133541Y0367770D01*
X0133654Y0367717D01*
X0133765Y0367659D01*
X0133875Y0367599D01*
X0133982Y0367534D01*
X0134087Y0367467D01*
X0134190Y0367396D01*
X0134290Y0367322D01*
X0134388Y0367245D01*
X0134484Y0367164D01*
X0134577Y0367081D01*
X0134668Y0366995D01*
X0134755Y0366906D01*
X0134840Y0366814D01*
X0134922Y0366720D01*
X0135001Y0366623D01*
X0135076Y0366523D01*
X0135149Y0366422D01*
X0135218Y0366318D01*
X0135284Y0366211D01*
X0135346Y0366103D01*
X0135405Y0365993D01*
X0135461Y0365881D01*
X0135513Y0365767D01*
X0135561Y0365652D01*
X0135606Y0365536D01*
X0135646Y0365417D01*
X0135684Y0365298D01*
X0135717Y0365178D01*
X0135746Y0365056D01*
X0135772Y0364934D01*
X0135794Y0364811D01*
X0135811Y0364687D01*
X0135825Y0364563D01*
X0135835Y0364439D01*
X0135841Y0364314D01*
X0135843Y0364189D01*
X0135841Y0364064D01*
X0135835Y0363939D01*
X0135825Y0363815D01*
X0135811Y0363691D01*
X0135794Y0363567D01*
X0135772Y0363444D01*
X0135746Y0363322D01*
X0135717Y0363200D01*
X0135684Y0363080D01*
X0135646Y0362961D01*
X0135606Y0362842D01*
X0135561Y0362726D01*
X0135513Y0362611D01*
X0135461Y0362497D01*
X0135405Y0362385D01*
X0135346Y0362275D01*
X0135284Y0362167D01*
X0135218Y0362060D01*
X0135149Y0361956D01*
X0135076Y0361855D01*
X0135001Y0361755D01*
X0134922Y0361658D01*
X0134840Y0361564D01*
X0134755Y0361472D01*
X0134668Y0361383D01*
X0134577Y0361297D01*
X0134484Y0361214D01*
X0134388Y0361133D01*
X0134290Y0361056D01*
X0134190Y0360982D01*
X0134087Y0360911D01*
X0133982Y0360844D01*
X0133874Y0360779D01*
X0133765Y0360719D01*
X0133654Y0360661D01*
X0133541Y0360608D01*
X0133427Y0360558D01*
X0133311Y0360511D01*
X0133194Y0360469D01*
X0133075Y0360430D01*
X0132955Y0360394D01*
X0132834Y0360363D01*
X0132712Y0360335D01*
X0132590Y0360312D01*
X0132466Y0360292D01*
X0132342Y0360276D01*
X0132218Y0360264D01*
X0132093Y0360256D01*
X0131968Y0360252D01*
X0131844Y0360252D01*
X0131719Y0360256D01*
X0131594Y0360264D01*
X0131470Y0360276D01*
X0131346Y0360292D01*
X0131222Y0360312D01*
X0131100Y0360335D01*
X0130978Y0360363D01*
X0130857Y0360394D01*
X0130737Y0360430D01*
X0130618Y0360469D01*
X0130501Y0360511D01*
X0130385Y0360558D01*
X0130271Y0360608D01*
X0130158Y0360661D01*
X0130047Y0360719D01*
X0129937Y0360779D01*
X0129830Y0360844D01*
X0129725Y0360911D01*
X0129622Y0360982D01*
X0129522Y0361056D01*
X0129424Y0361133D01*
X0129328Y0361214D01*
X0129235Y0361297D01*
X0129144Y0361383D01*
X0129057Y0361472D01*
X0128972Y0361564D01*
X0128890Y0361658D01*
X0128811Y0361755D01*
X0128736Y0361855D01*
X0128663Y0361956D01*
X0128594Y0362060D01*
X0128528Y0362167D01*
X0128466Y0362275D01*
X0128407Y0362385D01*
X0128351Y0362497D01*
X0128299Y0362611D01*
X0128251Y0362726D01*
X0128206Y0362842D01*
X0128166Y0362961D01*
X0128128Y0363080D01*
X0128095Y0363200D01*
X0128066Y0363322D01*
X0128040Y0363444D01*
X0128018Y0363567D01*
X0128001Y0363691D01*
X0127987Y0363815D01*
X0127977Y0363939D01*
X0127971Y0364064D01*
X0127969Y0364189D01*
X0057102Y0364189D02*
X0057104Y0364314D01*
X0057110Y0364439D01*
X0057120Y0364563D01*
X0057134Y0364687D01*
X0057151Y0364811D01*
X0057173Y0364934D01*
X0057199Y0365056D01*
X0057228Y0365178D01*
X0057261Y0365298D01*
X0057299Y0365417D01*
X0057339Y0365536D01*
X0057384Y0365652D01*
X0057432Y0365767D01*
X0057484Y0365881D01*
X0057540Y0365993D01*
X0057599Y0366103D01*
X0057661Y0366211D01*
X0057727Y0366318D01*
X0057796Y0366422D01*
X0057869Y0366523D01*
X0057944Y0366623D01*
X0058023Y0366720D01*
X0058105Y0366814D01*
X0058190Y0366906D01*
X0058277Y0366995D01*
X0058368Y0367081D01*
X0058461Y0367164D01*
X0058557Y0367245D01*
X0058655Y0367322D01*
X0058755Y0367396D01*
X0058858Y0367467D01*
X0058963Y0367534D01*
X0059071Y0367599D01*
X0059180Y0367659D01*
X0059291Y0367717D01*
X0059404Y0367770D01*
X0059518Y0367820D01*
X0059634Y0367867D01*
X0059751Y0367909D01*
X0059870Y0367948D01*
X0059990Y0367984D01*
X0060111Y0368015D01*
X0060233Y0368043D01*
X0060355Y0368066D01*
X0060479Y0368086D01*
X0060603Y0368102D01*
X0060727Y0368114D01*
X0060852Y0368122D01*
X0060977Y0368126D01*
X0061101Y0368126D01*
X0061226Y0368122D01*
X0061351Y0368114D01*
X0061475Y0368102D01*
X0061599Y0368086D01*
X0061723Y0368066D01*
X0061845Y0368043D01*
X0061967Y0368015D01*
X0062088Y0367984D01*
X0062208Y0367948D01*
X0062327Y0367909D01*
X0062444Y0367867D01*
X0062560Y0367820D01*
X0062674Y0367770D01*
X0062787Y0367717D01*
X0062898Y0367659D01*
X0063008Y0367599D01*
X0063115Y0367534D01*
X0063220Y0367467D01*
X0063323Y0367396D01*
X0063423Y0367322D01*
X0063521Y0367245D01*
X0063617Y0367164D01*
X0063710Y0367081D01*
X0063801Y0366995D01*
X0063888Y0366906D01*
X0063973Y0366814D01*
X0064055Y0366720D01*
X0064134Y0366623D01*
X0064209Y0366523D01*
X0064282Y0366422D01*
X0064351Y0366318D01*
X0064417Y0366211D01*
X0064479Y0366103D01*
X0064538Y0365993D01*
X0064594Y0365881D01*
X0064646Y0365767D01*
X0064694Y0365652D01*
X0064739Y0365536D01*
X0064779Y0365417D01*
X0064817Y0365298D01*
X0064850Y0365178D01*
X0064879Y0365056D01*
X0064905Y0364934D01*
X0064927Y0364811D01*
X0064944Y0364687D01*
X0064958Y0364563D01*
X0064968Y0364439D01*
X0064974Y0364314D01*
X0064976Y0364189D01*
X0064974Y0364064D01*
X0064968Y0363939D01*
X0064958Y0363815D01*
X0064944Y0363691D01*
X0064927Y0363567D01*
X0064905Y0363444D01*
X0064879Y0363322D01*
X0064850Y0363200D01*
X0064817Y0363080D01*
X0064779Y0362961D01*
X0064739Y0362842D01*
X0064694Y0362726D01*
X0064646Y0362611D01*
X0064594Y0362497D01*
X0064538Y0362385D01*
X0064479Y0362275D01*
X0064417Y0362167D01*
X0064351Y0362060D01*
X0064282Y0361956D01*
X0064209Y0361855D01*
X0064134Y0361755D01*
X0064055Y0361658D01*
X0063973Y0361564D01*
X0063888Y0361472D01*
X0063801Y0361383D01*
X0063710Y0361297D01*
X0063617Y0361214D01*
X0063521Y0361133D01*
X0063423Y0361056D01*
X0063323Y0360982D01*
X0063220Y0360911D01*
X0063115Y0360844D01*
X0063007Y0360779D01*
X0062898Y0360719D01*
X0062787Y0360661D01*
X0062674Y0360608D01*
X0062560Y0360558D01*
X0062444Y0360511D01*
X0062327Y0360469D01*
X0062208Y0360430D01*
X0062088Y0360394D01*
X0061967Y0360363D01*
X0061845Y0360335D01*
X0061723Y0360312D01*
X0061599Y0360292D01*
X0061475Y0360276D01*
X0061351Y0360264D01*
X0061226Y0360256D01*
X0061101Y0360252D01*
X0060977Y0360252D01*
X0060852Y0360256D01*
X0060727Y0360264D01*
X0060603Y0360276D01*
X0060479Y0360292D01*
X0060355Y0360312D01*
X0060233Y0360335D01*
X0060111Y0360363D01*
X0059990Y0360394D01*
X0059870Y0360430D01*
X0059751Y0360469D01*
X0059634Y0360511D01*
X0059518Y0360558D01*
X0059404Y0360608D01*
X0059291Y0360661D01*
X0059180Y0360719D01*
X0059070Y0360779D01*
X0058963Y0360844D01*
X0058858Y0360911D01*
X0058755Y0360982D01*
X0058655Y0361056D01*
X0058557Y0361133D01*
X0058461Y0361214D01*
X0058368Y0361297D01*
X0058277Y0361383D01*
X0058190Y0361472D01*
X0058105Y0361564D01*
X0058023Y0361658D01*
X0057944Y0361755D01*
X0057869Y0361855D01*
X0057796Y0361956D01*
X0057727Y0362060D01*
X0057661Y0362167D01*
X0057599Y0362275D01*
X0057540Y0362385D01*
X0057484Y0362497D01*
X0057432Y0362611D01*
X0057384Y0362726D01*
X0057339Y0362842D01*
X0057299Y0362961D01*
X0057261Y0363080D01*
X0057228Y0363200D01*
X0057199Y0363322D01*
X0057173Y0363444D01*
X0057151Y0363567D01*
X0057134Y0363691D01*
X0057120Y0363815D01*
X0057110Y0363939D01*
X0057104Y0364064D01*
X0057102Y0364189D01*
X0982299Y0275606D02*
X0982301Y0275731D01*
X0982307Y0275856D01*
X0982317Y0275980D01*
X0982331Y0276104D01*
X0982348Y0276228D01*
X0982370Y0276351D01*
X0982396Y0276473D01*
X0982425Y0276595D01*
X0982458Y0276715D01*
X0982496Y0276834D01*
X0982536Y0276953D01*
X0982581Y0277069D01*
X0982629Y0277184D01*
X0982681Y0277298D01*
X0982737Y0277410D01*
X0982796Y0277520D01*
X0982858Y0277628D01*
X0982924Y0277735D01*
X0982993Y0277839D01*
X0983066Y0277940D01*
X0983141Y0278040D01*
X0983220Y0278137D01*
X0983302Y0278231D01*
X0983387Y0278323D01*
X0983474Y0278412D01*
X0983565Y0278498D01*
X0983658Y0278581D01*
X0983754Y0278662D01*
X0983852Y0278739D01*
X0983952Y0278813D01*
X0984055Y0278884D01*
X0984160Y0278951D01*
X0984268Y0279016D01*
X0984377Y0279076D01*
X0984488Y0279134D01*
X0984601Y0279187D01*
X0984715Y0279237D01*
X0984831Y0279284D01*
X0984948Y0279326D01*
X0985067Y0279365D01*
X0985187Y0279401D01*
X0985308Y0279432D01*
X0985430Y0279460D01*
X0985552Y0279483D01*
X0985676Y0279503D01*
X0985800Y0279519D01*
X0985924Y0279531D01*
X0986049Y0279539D01*
X0986174Y0279543D01*
X0986298Y0279543D01*
X0986423Y0279539D01*
X0986548Y0279531D01*
X0986672Y0279519D01*
X0986796Y0279503D01*
X0986920Y0279483D01*
X0987042Y0279460D01*
X0987164Y0279432D01*
X0987285Y0279401D01*
X0987405Y0279365D01*
X0987524Y0279326D01*
X0987641Y0279284D01*
X0987757Y0279237D01*
X0987871Y0279187D01*
X0987984Y0279134D01*
X0988095Y0279076D01*
X0988205Y0279016D01*
X0988312Y0278951D01*
X0988417Y0278884D01*
X0988520Y0278813D01*
X0988620Y0278739D01*
X0988718Y0278662D01*
X0988814Y0278581D01*
X0988907Y0278498D01*
X0988998Y0278412D01*
X0989085Y0278323D01*
X0989170Y0278231D01*
X0989252Y0278137D01*
X0989331Y0278040D01*
X0989406Y0277940D01*
X0989479Y0277839D01*
X0989548Y0277735D01*
X0989614Y0277628D01*
X0989676Y0277520D01*
X0989735Y0277410D01*
X0989791Y0277298D01*
X0989843Y0277184D01*
X0989891Y0277069D01*
X0989936Y0276953D01*
X0989976Y0276834D01*
X0990014Y0276715D01*
X0990047Y0276595D01*
X0990076Y0276473D01*
X0990102Y0276351D01*
X0990124Y0276228D01*
X0990141Y0276104D01*
X0990155Y0275980D01*
X0990165Y0275856D01*
X0990171Y0275731D01*
X0990173Y0275606D01*
X0990171Y0275481D01*
X0990165Y0275356D01*
X0990155Y0275232D01*
X0990141Y0275108D01*
X0990124Y0274984D01*
X0990102Y0274861D01*
X0990076Y0274739D01*
X0990047Y0274617D01*
X0990014Y0274497D01*
X0989976Y0274378D01*
X0989936Y0274259D01*
X0989891Y0274143D01*
X0989843Y0274028D01*
X0989791Y0273914D01*
X0989735Y0273802D01*
X0989676Y0273692D01*
X0989614Y0273584D01*
X0989548Y0273477D01*
X0989479Y0273373D01*
X0989406Y0273272D01*
X0989331Y0273172D01*
X0989252Y0273075D01*
X0989170Y0272981D01*
X0989085Y0272889D01*
X0988998Y0272800D01*
X0988907Y0272714D01*
X0988814Y0272631D01*
X0988718Y0272550D01*
X0988620Y0272473D01*
X0988520Y0272399D01*
X0988417Y0272328D01*
X0988312Y0272261D01*
X0988204Y0272196D01*
X0988095Y0272136D01*
X0987984Y0272078D01*
X0987871Y0272025D01*
X0987757Y0271975D01*
X0987641Y0271928D01*
X0987524Y0271886D01*
X0987405Y0271847D01*
X0987285Y0271811D01*
X0987164Y0271780D01*
X0987042Y0271752D01*
X0986920Y0271729D01*
X0986796Y0271709D01*
X0986672Y0271693D01*
X0986548Y0271681D01*
X0986423Y0271673D01*
X0986298Y0271669D01*
X0986174Y0271669D01*
X0986049Y0271673D01*
X0985924Y0271681D01*
X0985800Y0271693D01*
X0985676Y0271709D01*
X0985552Y0271729D01*
X0985430Y0271752D01*
X0985308Y0271780D01*
X0985187Y0271811D01*
X0985067Y0271847D01*
X0984948Y0271886D01*
X0984831Y0271928D01*
X0984715Y0271975D01*
X0984601Y0272025D01*
X0984488Y0272078D01*
X0984377Y0272136D01*
X0984267Y0272196D01*
X0984160Y0272261D01*
X0984055Y0272328D01*
X0983952Y0272399D01*
X0983852Y0272473D01*
X0983754Y0272550D01*
X0983658Y0272631D01*
X0983565Y0272714D01*
X0983474Y0272800D01*
X0983387Y0272889D01*
X0983302Y0272981D01*
X0983220Y0273075D01*
X0983141Y0273172D01*
X0983066Y0273272D01*
X0982993Y0273373D01*
X0982924Y0273477D01*
X0982858Y0273584D01*
X0982796Y0273692D01*
X0982737Y0273802D01*
X0982681Y0273914D01*
X0982629Y0274028D01*
X0982581Y0274143D01*
X0982536Y0274259D01*
X0982496Y0274378D01*
X0982458Y0274497D01*
X0982425Y0274617D01*
X0982396Y0274739D01*
X0982370Y0274861D01*
X0982348Y0274984D01*
X0982331Y0275108D01*
X0982317Y0275232D01*
X0982307Y0275356D01*
X0982301Y0275481D01*
X0982299Y0275606D01*
X0982299Y0122063D02*
X0982301Y0122188D01*
X0982307Y0122313D01*
X0982317Y0122437D01*
X0982331Y0122561D01*
X0982348Y0122685D01*
X0982370Y0122808D01*
X0982396Y0122930D01*
X0982425Y0123052D01*
X0982458Y0123172D01*
X0982496Y0123291D01*
X0982536Y0123410D01*
X0982581Y0123526D01*
X0982629Y0123641D01*
X0982681Y0123755D01*
X0982737Y0123867D01*
X0982796Y0123977D01*
X0982858Y0124085D01*
X0982924Y0124192D01*
X0982993Y0124296D01*
X0983066Y0124397D01*
X0983141Y0124497D01*
X0983220Y0124594D01*
X0983302Y0124688D01*
X0983387Y0124780D01*
X0983474Y0124869D01*
X0983565Y0124955D01*
X0983658Y0125038D01*
X0983754Y0125119D01*
X0983852Y0125196D01*
X0983952Y0125270D01*
X0984055Y0125341D01*
X0984160Y0125408D01*
X0984268Y0125473D01*
X0984377Y0125533D01*
X0984488Y0125591D01*
X0984601Y0125644D01*
X0984715Y0125694D01*
X0984831Y0125741D01*
X0984948Y0125783D01*
X0985067Y0125822D01*
X0985187Y0125858D01*
X0985308Y0125889D01*
X0985430Y0125917D01*
X0985552Y0125940D01*
X0985676Y0125960D01*
X0985800Y0125976D01*
X0985924Y0125988D01*
X0986049Y0125996D01*
X0986174Y0126000D01*
X0986298Y0126000D01*
X0986423Y0125996D01*
X0986548Y0125988D01*
X0986672Y0125976D01*
X0986796Y0125960D01*
X0986920Y0125940D01*
X0987042Y0125917D01*
X0987164Y0125889D01*
X0987285Y0125858D01*
X0987405Y0125822D01*
X0987524Y0125783D01*
X0987641Y0125741D01*
X0987757Y0125694D01*
X0987871Y0125644D01*
X0987984Y0125591D01*
X0988095Y0125533D01*
X0988205Y0125473D01*
X0988312Y0125408D01*
X0988417Y0125341D01*
X0988520Y0125270D01*
X0988620Y0125196D01*
X0988718Y0125119D01*
X0988814Y0125038D01*
X0988907Y0124955D01*
X0988998Y0124869D01*
X0989085Y0124780D01*
X0989170Y0124688D01*
X0989252Y0124594D01*
X0989331Y0124497D01*
X0989406Y0124397D01*
X0989479Y0124296D01*
X0989548Y0124192D01*
X0989614Y0124085D01*
X0989676Y0123977D01*
X0989735Y0123867D01*
X0989791Y0123755D01*
X0989843Y0123641D01*
X0989891Y0123526D01*
X0989936Y0123410D01*
X0989976Y0123291D01*
X0990014Y0123172D01*
X0990047Y0123052D01*
X0990076Y0122930D01*
X0990102Y0122808D01*
X0990124Y0122685D01*
X0990141Y0122561D01*
X0990155Y0122437D01*
X0990165Y0122313D01*
X0990171Y0122188D01*
X0990173Y0122063D01*
X0990171Y0121938D01*
X0990165Y0121813D01*
X0990155Y0121689D01*
X0990141Y0121565D01*
X0990124Y0121441D01*
X0990102Y0121318D01*
X0990076Y0121196D01*
X0990047Y0121074D01*
X0990014Y0120954D01*
X0989976Y0120835D01*
X0989936Y0120716D01*
X0989891Y0120600D01*
X0989843Y0120485D01*
X0989791Y0120371D01*
X0989735Y0120259D01*
X0989676Y0120149D01*
X0989614Y0120041D01*
X0989548Y0119934D01*
X0989479Y0119830D01*
X0989406Y0119729D01*
X0989331Y0119629D01*
X0989252Y0119532D01*
X0989170Y0119438D01*
X0989085Y0119346D01*
X0988998Y0119257D01*
X0988907Y0119171D01*
X0988814Y0119088D01*
X0988718Y0119007D01*
X0988620Y0118930D01*
X0988520Y0118856D01*
X0988417Y0118785D01*
X0988312Y0118718D01*
X0988204Y0118653D01*
X0988095Y0118593D01*
X0987984Y0118535D01*
X0987871Y0118482D01*
X0987757Y0118432D01*
X0987641Y0118385D01*
X0987524Y0118343D01*
X0987405Y0118304D01*
X0987285Y0118268D01*
X0987164Y0118237D01*
X0987042Y0118209D01*
X0986920Y0118186D01*
X0986796Y0118166D01*
X0986672Y0118150D01*
X0986548Y0118138D01*
X0986423Y0118130D01*
X0986298Y0118126D01*
X0986174Y0118126D01*
X0986049Y0118130D01*
X0985924Y0118138D01*
X0985800Y0118150D01*
X0985676Y0118166D01*
X0985552Y0118186D01*
X0985430Y0118209D01*
X0985308Y0118237D01*
X0985187Y0118268D01*
X0985067Y0118304D01*
X0984948Y0118343D01*
X0984831Y0118385D01*
X0984715Y0118432D01*
X0984601Y0118482D01*
X0984488Y0118535D01*
X0984377Y0118593D01*
X0984267Y0118653D01*
X0984160Y0118718D01*
X0984055Y0118785D01*
X0983952Y0118856D01*
X0983852Y0118930D01*
X0983754Y0119007D01*
X0983658Y0119088D01*
X0983565Y0119171D01*
X0983474Y0119257D01*
X0983387Y0119346D01*
X0983302Y0119438D01*
X0983220Y0119532D01*
X0983141Y0119629D01*
X0983066Y0119729D01*
X0982993Y0119830D01*
X0982924Y0119934D01*
X0982858Y0120041D01*
X0982796Y0120149D01*
X0982737Y0120259D01*
X0982681Y0120371D01*
X0982629Y0120485D01*
X0982581Y0120600D01*
X0982536Y0120716D01*
X0982496Y0120835D01*
X0982458Y0120954D01*
X0982425Y0121074D01*
X0982396Y0121196D01*
X0982370Y0121318D01*
X0982348Y0121441D01*
X0982331Y0121565D01*
X0982317Y0121689D01*
X0982307Y0121813D01*
X0982301Y0121938D01*
X0982299Y0122063D01*
D11*
X0285138Y0132535D02*
X0285138Y0052535D01*
X0277638Y0052535D01*
X0277636Y0052661D01*
X0277630Y0052786D01*
X0277620Y0052911D01*
X0277606Y0053036D01*
X0277589Y0053161D01*
X0277567Y0053285D01*
X0277542Y0053408D01*
X0277512Y0053530D01*
X0277479Y0053651D01*
X0277442Y0053771D01*
X0277402Y0053890D01*
X0277357Y0054007D01*
X0277309Y0054124D01*
X0277257Y0054238D01*
X0277202Y0054351D01*
X0277143Y0054462D01*
X0277081Y0054571D01*
X0277015Y0054678D01*
X0276946Y0054783D01*
X0276874Y0054886D01*
X0276799Y0054987D01*
X0276720Y0055085D01*
X0276638Y0055180D01*
X0276554Y0055273D01*
X0276466Y0055363D01*
X0276376Y0055451D01*
X0276283Y0055535D01*
X0276188Y0055617D01*
X0276090Y0055696D01*
X0275989Y0055771D01*
X0275886Y0055843D01*
X0275781Y0055912D01*
X0275674Y0055978D01*
X0275565Y0056040D01*
X0275454Y0056099D01*
X0275341Y0056154D01*
X0275227Y0056206D01*
X0275110Y0056254D01*
X0274993Y0056299D01*
X0274874Y0056339D01*
X0274754Y0056376D01*
X0274633Y0056409D01*
X0274511Y0056439D01*
X0274388Y0056464D01*
X0274264Y0056486D01*
X0274139Y0056503D01*
X0274014Y0056517D01*
X0273889Y0056527D01*
X0273764Y0056533D01*
X0273638Y0056535D01*
X0273512Y0056533D01*
X0273387Y0056527D01*
X0273262Y0056517D01*
X0273137Y0056503D01*
X0273012Y0056486D01*
X0272888Y0056464D01*
X0272765Y0056439D01*
X0272643Y0056409D01*
X0272522Y0056376D01*
X0272402Y0056339D01*
X0272283Y0056299D01*
X0272166Y0056254D01*
X0272049Y0056206D01*
X0271935Y0056154D01*
X0271822Y0056099D01*
X0271711Y0056040D01*
X0271602Y0055978D01*
X0271495Y0055912D01*
X0271390Y0055843D01*
X0271287Y0055771D01*
X0271186Y0055696D01*
X0271088Y0055617D01*
X0270993Y0055535D01*
X0270900Y0055451D01*
X0270810Y0055363D01*
X0270722Y0055273D01*
X0270638Y0055180D01*
X0270556Y0055085D01*
X0270477Y0054987D01*
X0270402Y0054886D01*
X0270330Y0054783D01*
X0270261Y0054678D01*
X0270195Y0054571D01*
X0270133Y0054462D01*
X0270074Y0054351D01*
X0270019Y0054238D01*
X0269967Y0054124D01*
X0269919Y0054007D01*
X0269874Y0053890D01*
X0269834Y0053771D01*
X0269797Y0053651D01*
X0269764Y0053530D01*
X0269734Y0053408D01*
X0269709Y0053285D01*
X0269687Y0053161D01*
X0269670Y0053036D01*
X0269656Y0052911D01*
X0269646Y0052786D01*
X0269640Y0052661D01*
X0269638Y0052535D01*
X0262138Y0052535D01*
X0262138Y0132535D01*
X0285138Y0132535D01*
X0254736Y0347189D02*
X0217736Y0347189D01*
X0216736Y0348189D01*
X0216236Y0359689D01*
X0256236Y0359689D02*
X0255736Y0348189D01*
X0254736Y0347189D01*
D12*
X0218536Y0349589D03*
D13*
X0218738Y0345143D02*
X0216486Y0345143D01*
X0216486Y0340639D01*
X0218738Y0340639D01*
X0219489Y0341390D01*
X0219489Y0344392D01*
X0218738Y0345143D01*
X0221090Y0343642D02*
X0222591Y0345143D01*
X0222591Y0340639D01*
X0221090Y0340639D02*
X0224093Y0340639D01*
X0228183Y0336408D02*
X0228817Y0336408D01*
X0228500Y0336408D02*
X0228500Y0334823D01*
X0228183Y0334506D01*
X0227866Y0334506D01*
X0227549Y0334823D01*
X0229759Y0334823D02*
X0230076Y0334506D01*
X0230710Y0334506D01*
X0231027Y0334823D01*
X0231027Y0335140D01*
X0230710Y0335457D01*
X0230393Y0335457D01*
X0230710Y0335457D02*
X0231027Y0335774D01*
X0231027Y0336091D01*
X0230710Y0336408D01*
X0230076Y0336408D01*
X0229759Y0336091D01*
X0216930Y0312785D02*
X0215980Y0311835D01*
X0217247Y0311835D01*
X0216930Y0312785D02*
X0216930Y0310884D01*
X0214720Y0311201D02*
X0214720Y0312785D01*
X0214404Y0312785D02*
X0215037Y0312785D01*
X0214720Y0311201D02*
X0214404Y0310884D01*
X0214087Y0310884D01*
X0213770Y0311201D01*
X0295764Y0312587D02*
X0344764Y0312587D01*
X0344764Y0316087D01*
X0350764Y0316087D01*
X0350764Y0312587D01*
X0358264Y0312587D01*
X0358264Y0353587D01*
X0350764Y0353587D01*
X0350764Y0350087D01*
X0344764Y0350087D01*
X0344764Y0353587D01*
X0295764Y0353587D01*
X0295764Y0312587D01*
X0332011Y0328030D02*
X0333145Y0329165D01*
X0335414Y0329165D01*
X0335414Y0330487D02*
X0335414Y0332756D01*
X0335414Y0331622D02*
X0332011Y0331622D01*
X0333145Y0330487D01*
X0333712Y0329165D02*
X0333712Y0326896D01*
X0333145Y0326896D02*
X0332011Y0328030D01*
X0333145Y0326896D02*
X0335414Y0326896D01*
X0337664Y0333087D02*
X0337666Y0333261D01*
X0337673Y0333435D01*
X0337683Y0333609D01*
X0337698Y0333783D01*
X0337717Y0333956D01*
X0337741Y0334129D01*
X0337769Y0334301D01*
X0337800Y0334472D01*
X0337837Y0334643D01*
X0337877Y0334812D01*
X0337921Y0334981D01*
X0337970Y0335148D01*
X0338022Y0335314D01*
X0338079Y0335479D01*
X0338140Y0335642D01*
X0338204Y0335804D01*
X0338273Y0335964D01*
X0338346Y0336123D01*
X0338422Y0336279D01*
X0338502Y0336434D01*
X0338586Y0336587D01*
X0338674Y0336737D01*
X0338766Y0336885D01*
X0338861Y0337032D01*
X0338959Y0337175D01*
X0339061Y0337316D01*
X0339167Y0337455D01*
X0339276Y0337591D01*
X0339388Y0337725D01*
X0339503Y0337855D01*
X0339622Y0337983D01*
X0339744Y0338107D01*
X0339868Y0338229D01*
X0339996Y0338348D01*
X0340126Y0338463D01*
X0340260Y0338575D01*
X0340396Y0338684D01*
X0340535Y0338790D01*
X0340676Y0338892D01*
X0340819Y0338990D01*
X0340966Y0339085D01*
X0341114Y0339177D01*
X0341264Y0339265D01*
X0341417Y0339349D01*
X0341572Y0339429D01*
X0341728Y0339505D01*
X0341887Y0339578D01*
X0342047Y0339647D01*
X0342209Y0339711D01*
X0342372Y0339772D01*
X0342537Y0339829D01*
X0342703Y0339881D01*
X0342870Y0339930D01*
X0343039Y0339974D01*
X0343208Y0340014D01*
X0343379Y0340051D01*
X0343550Y0340082D01*
X0343722Y0340110D01*
X0343895Y0340134D01*
X0344068Y0340153D01*
X0344242Y0340168D01*
X0344416Y0340178D01*
X0344590Y0340185D01*
X0344764Y0340187D01*
X0344938Y0340185D01*
X0345112Y0340178D01*
X0345286Y0340168D01*
X0345460Y0340153D01*
X0345633Y0340134D01*
X0345806Y0340110D01*
X0345978Y0340082D01*
X0346149Y0340051D01*
X0346320Y0340014D01*
X0346489Y0339974D01*
X0346658Y0339930D01*
X0346825Y0339881D01*
X0346991Y0339829D01*
X0347156Y0339772D01*
X0347319Y0339711D01*
X0347481Y0339647D01*
X0347641Y0339578D01*
X0347800Y0339505D01*
X0347956Y0339429D01*
X0348111Y0339349D01*
X0348264Y0339265D01*
X0348414Y0339177D01*
X0348562Y0339085D01*
X0348709Y0338990D01*
X0348852Y0338892D01*
X0348993Y0338790D01*
X0349132Y0338684D01*
X0349268Y0338575D01*
X0349402Y0338463D01*
X0349532Y0338348D01*
X0349660Y0338229D01*
X0349784Y0338107D01*
X0349906Y0337983D01*
X0350025Y0337855D01*
X0350140Y0337725D01*
X0350252Y0337591D01*
X0350361Y0337455D01*
X0350467Y0337316D01*
X0350569Y0337175D01*
X0350667Y0337032D01*
X0350762Y0336885D01*
X0350854Y0336737D01*
X0350942Y0336587D01*
X0351026Y0336434D01*
X0351106Y0336279D01*
X0351182Y0336123D01*
X0351255Y0335964D01*
X0351324Y0335804D01*
X0351388Y0335642D01*
X0351449Y0335479D01*
X0351506Y0335314D01*
X0351558Y0335148D01*
X0351607Y0334981D01*
X0351651Y0334812D01*
X0351691Y0334643D01*
X0351728Y0334472D01*
X0351759Y0334301D01*
X0351787Y0334129D01*
X0351811Y0333956D01*
X0351830Y0333783D01*
X0351845Y0333609D01*
X0351855Y0333435D01*
X0351862Y0333261D01*
X0351864Y0333087D01*
X0351862Y0332913D01*
X0351855Y0332739D01*
X0351845Y0332565D01*
X0351830Y0332391D01*
X0351811Y0332218D01*
X0351787Y0332045D01*
X0351759Y0331873D01*
X0351728Y0331702D01*
X0351691Y0331531D01*
X0351651Y0331362D01*
X0351607Y0331193D01*
X0351558Y0331026D01*
X0351506Y0330860D01*
X0351449Y0330695D01*
X0351388Y0330532D01*
X0351324Y0330370D01*
X0351255Y0330210D01*
X0351182Y0330051D01*
X0351106Y0329895D01*
X0351026Y0329740D01*
X0350942Y0329587D01*
X0350854Y0329437D01*
X0350762Y0329289D01*
X0350667Y0329142D01*
X0350569Y0328999D01*
X0350467Y0328858D01*
X0350361Y0328719D01*
X0350252Y0328583D01*
X0350140Y0328449D01*
X0350025Y0328319D01*
X0349906Y0328191D01*
X0349784Y0328067D01*
X0349660Y0327945D01*
X0349532Y0327826D01*
X0349402Y0327711D01*
X0349268Y0327599D01*
X0349132Y0327490D01*
X0348993Y0327384D01*
X0348852Y0327282D01*
X0348709Y0327184D01*
X0348562Y0327089D01*
X0348414Y0326997D01*
X0348264Y0326909D01*
X0348111Y0326825D01*
X0347956Y0326745D01*
X0347800Y0326669D01*
X0347641Y0326596D01*
X0347481Y0326527D01*
X0347319Y0326463D01*
X0347156Y0326402D01*
X0346991Y0326345D01*
X0346825Y0326293D01*
X0346658Y0326244D01*
X0346489Y0326200D01*
X0346320Y0326160D01*
X0346149Y0326123D01*
X0345978Y0326092D01*
X0345806Y0326064D01*
X0345633Y0326040D01*
X0345460Y0326021D01*
X0345286Y0326006D01*
X0345112Y0325996D01*
X0344938Y0325989D01*
X0344764Y0325987D01*
X0344590Y0325989D01*
X0344416Y0325996D01*
X0344242Y0326006D01*
X0344068Y0326021D01*
X0343895Y0326040D01*
X0343722Y0326064D01*
X0343550Y0326092D01*
X0343379Y0326123D01*
X0343208Y0326160D01*
X0343039Y0326200D01*
X0342870Y0326244D01*
X0342703Y0326293D01*
X0342537Y0326345D01*
X0342372Y0326402D01*
X0342209Y0326463D01*
X0342047Y0326527D01*
X0341887Y0326596D01*
X0341728Y0326669D01*
X0341572Y0326745D01*
X0341417Y0326825D01*
X0341264Y0326909D01*
X0341114Y0326997D01*
X0340966Y0327089D01*
X0340819Y0327184D01*
X0340676Y0327282D01*
X0340535Y0327384D01*
X0340396Y0327490D01*
X0340260Y0327599D01*
X0340126Y0327711D01*
X0339996Y0327826D01*
X0339868Y0327945D01*
X0339744Y0328067D01*
X0339622Y0328191D01*
X0339503Y0328319D01*
X0339388Y0328449D01*
X0339276Y0328583D01*
X0339167Y0328719D01*
X0339061Y0328858D01*
X0338959Y0328999D01*
X0338861Y0329142D01*
X0338766Y0329289D01*
X0338674Y0329437D01*
X0338586Y0329587D01*
X0338502Y0329740D01*
X0338422Y0329895D01*
X0338346Y0330051D01*
X0338273Y0330210D01*
X0338204Y0330370D01*
X0338140Y0330532D01*
X0338079Y0330695D01*
X0338022Y0330860D01*
X0337970Y0331026D01*
X0337921Y0331193D01*
X0337877Y0331362D01*
X0337837Y0331531D01*
X0337800Y0331702D01*
X0337769Y0331873D01*
X0337741Y0332045D01*
X0337717Y0332218D01*
X0337698Y0332391D01*
X0337683Y0332565D01*
X0337673Y0332739D01*
X0337666Y0332913D01*
X0337664Y0333087D01*
X0335414Y0334078D02*
X0334847Y0334078D01*
X0332578Y0336347D01*
X0332011Y0336347D01*
X0332011Y0334078D01*
X0334847Y0338237D02*
X0335414Y0338237D01*
X0335414Y0338804D01*
X0334847Y0338804D01*
X0334847Y0338237D01*
X0335414Y0338804D02*
X0336548Y0337669D01*
X0334847Y0340063D02*
X0335414Y0340631D01*
X0335414Y0341765D01*
X0334847Y0342332D01*
X0333712Y0342332D01*
X0333145Y0341765D01*
X0333145Y0341198D01*
X0333712Y0340063D01*
X0332011Y0340063D01*
X0332011Y0342332D01*
X0333145Y0343654D02*
X0333145Y0344222D01*
X0333712Y0344789D01*
X0333145Y0345356D01*
X0333712Y0345923D01*
X0335414Y0345923D01*
X0335414Y0344789D02*
X0333712Y0344789D01*
X0333145Y0343654D02*
X0335414Y0343654D01*
X0335414Y0347246D02*
X0333145Y0347246D01*
X0333145Y0347813D01*
X0333712Y0348380D01*
X0333145Y0348947D01*
X0333712Y0349514D01*
X0335414Y0349514D01*
X0335414Y0348380D02*
X0333712Y0348380D01*
X0320658Y0102749D02*
X0320658Y0101481D01*
X0320658Y0102115D02*
X0318756Y0102115D01*
X0319390Y0101481D01*
X0318756Y0100539D02*
X0318756Y0099905D01*
X0318756Y0100222D02*
X0320341Y0100222D01*
X0320658Y0099905D01*
X0320658Y0099588D01*
X0320341Y0099271D01*
X0224581Y0087326D02*
X0224581Y0086058D01*
X0223313Y0087326D01*
X0222996Y0087326D01*
X0222679Y0087009D01*
X0222679Y0086375D01*
X0222996Y0086058D01*
X0222679Y0085116D02*
X0222679Y0084482D01*
X0222679Y0084799D02*
X0224264Y0084799D01*
X0224581Y0084482D01*
X0224581Y0084165D01*
X0224264Y0083848D01*
X0213310Y0064754D02*
X0212043Y0064754D01*
X0212043Y0063803D01*
X0212676Y0064120D01*
X0212993Y0064120D01*
X0213310Y0063803D01*
X0213310Y0063169D01*
X0212993Y0062852D01*
X0212359Y0062852D01*
X0212043Y0063169D01*
X0210783Y0063169D02*
X0210783Y0064754D01*
X0210467Y0064754D02*
X0211100Y0064754D01*
X0210783Y0063169D02*
X0210467Y0062852D01*
X0210150Y0062852D01*
X0209833Y0063169D01*
X0273111Y0050789D02*
X0274612Y0050789D01*
X0273861Y0050789D02*
X0273861Y0046285D01*
X0273111Y0046285D02*
X0274612Y0046285D01*
X0276180Y0047036D02*
X0276931Y0046285D01*
X0278432Y0046285D01*
X0279182Y0047036D01*
X0280784Y0046285D02*
X0283786Y0046285D01*
X0282285Y0046285D02*
X0282285Y0050789D01*
X0280784Y0049288D01*
X0279182Y0050039D02*
X0278432Y0050789D01*
X0276931Y0050789D01*
X0276180Y0050039D01*
X0276180Y0047036D01*
D14*
X0236236Y0362689D03*
D15*
X0218986Y0360189D03*
X0253486Y0360189D03*
D16*
X0236236Y0360189D03*
D17*
X0234799Y0333756D02*
X0229799Y0333756D01*
X0227299Y0331256D01*
X0227299Y0326256D01*
X0229799Y0323756D01*
X0234799Y0323756D01*
X0237299Y0326256D01*
X0239799Y0323756D01*
X0244799Y0323756D01*
X0247299Y0326256D01*
X0247299Y0331256D01*
X0244799Y0333756D01*
X0239799Y0333756D01*
X0237299Y0331256D01*
X0234799Y0333756D01*
X0231020Y0310134D02*
X0226020Y0310134D01*
X0223520Y0307634D01*
X0221020Y0310134D01*
X0216020Y0310134D01*
X0213520Y0307634D01*
X0213520Y0302634D01*
X0216020Y0300134D01*
X0221020Y0300134D01*
X0223520Y0302634D01*
X0226020Y0300134D01*
X0231020Y0300134D01*
X0233520Y0302634D01*
X0233520Y0307634D01*
X0231020Y0310134D01*
X0232831Y0103598D02*
X0227831Y0103598D01*
X0225331Y0101098D01*
X0225331Y0096098D01*
X0227831Y0093598D01*
X0225331Y0091098D01*
X0225331Y0086098D01*
X0227831Y0083598D01*
X0232831Y0083598D01*
X0235331Y0086098D01*
X0235331Y0091098D01*
X0232831Y0093598D01*
X0235331Y0096098D01*
X0235331Y0101098D01*
X0232831Y0103598D01*
X0308008Y0100941D02*
X0308008Y0095941D01*
X0310508Y0093441D01*
X0308008Y0090941D01*
X0308008Y0085941D01*
X0310508Y0083441D01*
X0315508Y0083441D01*
X0318008Y0085941D01*
X0318008Y0090941D01*
X0315508Y0093441D01*
X0318008Y0095941D01*
X0318008Y0100941D01*
X0315508Y0103441D01*
X0310508Y0103441D01*
X0308008Y0100941D01*
X0239583Y0059602D02*
X0237083Y0062102D01*
X0232083Y0062102D01*
X0229583Y0059602D01*
X0227083Y0062102D01*
X0222083Y0062102D01*
X0219583Y0059602D01*
X0217083Y0062102D01*
X0212083Y0062102D01*
X0209583Y0059602D01*
X0209583Y0054602D01*
X0212083Y0052102D01*
X0217083Y0052102D01*
X0219583Y0054602D01*
X0222083Y0052102D01*
X0227083Y0052102D01*
X0229583Y0054602D01*
X0232083Y0052102D01*
X0237083Y0052102D01*
X0239583Y0054602D01*
X0239583Y0059602D01*
D18*
X0298264Y0315087D02*
X0330764Y0315087D01*
X0330764Y0351087D01*
X0298264Y0351087D01*
X0298264Y0315087D01*
D19*
X0321608Y0335546D02*
X0321608Y0339749D01*
X0321608Y0337647D02*
X0327914Y0337647D01*
X0327914Y0341991D02*
X0327914Y0346195D01*
X0327914Y0344093D02*
X0321608Y0344093D01*
X0323710Y0341991D01*
D20*
X0283514Y0343087D03*
X0283514Y0333087D03*
X0283514Y0323087D03*
D21*
X0290264Y0323087D03*
X0290264Y0333087D03*
X0290264Y0343087D03*
M02*
