G75*
%MOIN*%
%OFA0B0*%
%FSLAX25Y25*%
%IPPOS*%
%LPD*%
%AMOC8*
5,1,8,0,0,1.08239X$1,22.5*
%
%ADD10C,0.07874*%
%ADD11C,1.37795*%
%ADD12C,0.06000*%
%ADD13C,0.04800*%
%ADD14C,0.07400*%
%ADD15C,0.06600*%
%ADD16C,0.13000*%
%ADD17C,0.04724*%
%ADD18C,0.04724*%
D10*
X0061039Y0033480D03*
X0131906Y0033480D03*
X0131906Y0364189D03*
X0061039Y0364189D03*
X0986236Y0275606D03*
X0986236Y0122063D03*
D11*
X0102378Y0198835D03*
D12*
X0226236Y0351189D02*
X0226236Y0357189D01*
X0246236Y0357189D02*
X0246236Y0351189D01*
D13*
X0256238Y0127535D02*
X0261038Y0127535D01*
X0286238Y0127535D02*
X0291038Y0127535D01*
X0291038Y0117535D02*
X0286238Y0117535D01*
X0286238Y0107535D02*
X0291038Y0107535D01*
X0291038Y0097535D02*
X0286238Y0097535D01*
X0286238Y0087535D02*
X0291038Y0087535D01*
X0291038Y0077535D02*
X0286238Y0077535D01*
X0261038Y0077535D02*
X0256238Y0077535D01*
X0256238Y0067535D02*
X0261038Y0067535D01*
X0261038Y0057535D02*
X0256238Y0057535D01*
X0286238Y0057535D02*
X0291038Y0057535D01*
X0291038Y0067535D02*
X0286238Y0067535D01*
X0261038Y0087535D02*
X0256238Y0087535D01*
X0256238Y0097535D02*
X0261038Y0097535D01*
X0261038Y0107535D02*
X0256238Y0107535D01*
X0256238Y0117535D02*
X0261038Y0117535D01*
D14*
X0230331Y0098598D03*
X0230331Y0088598D03*
X0234583Y0057102D03*
X0224583Y0057102D03*
X0214583Y0057102D03*
X0313008Y0088441D03*
X0313008Y0098441D03*
X0228520Y0305134D03*
X0218520Y0305134D03*
X0232299Y0328756D03*
X0242299Y0328756D03*
D15*
X0272464Y0333087D02*
X0279064Y0333087D01*
X0279064Y0323087D02*
X0272464Y0323087D01*
X0272464Y0343087D02*
X0279064Y0343087D01*
D16*
X0344764Y0333087D03*
D17*
X0305291Y0287929D02*
X0300567Y0287929D01*
X0300567Y0277929D02*
X0305291Y0277929D01*
X0305291Y0267929D02*
X0300567Y0267929D01*
X0300567Y0257929D02*
X0305291Y0257929D01*
X0305291Y0247929D02*
X0300567Y0247929D01*
X0300567Y0237929D02*
X0305291Y0237929D01*
X0305291Y0227929D02*
X0300567Y0227929D01*
X0300567Y0217929D02*
X0305291Y0217929D01*
X0305291Y0207929D02*
X0300567Y0207929D01*
X0300567Y0197929D02*
X0305291Y0197929D01*
X0305291Y0187929D02*
X0300567Y0187929D01*
X0300567Y0177929D02*
X0305291Y0177929D01*
X0305291Y0167929D02*
X0300567Y0167929D01*
X0300567Y0157929D02*
X0305291Y0157929D01*
X0305291Y0147929D02*
X0300567Y0147929D01*
X0245291Y0147929D02*
X0240567Y0147929D01*
X0240567Y0157929D02*
X0245291Y0157929D01*
X0245291Y0167929D02*
X0240567Y0167929D01*
X0240567Y0177929D02*
X0245291Y0177929D01*
X0245291Y0187929D02*
X0240567Y0187929D01*
X0240567Y0197929D02*
X0245291Y0197929D01*
X0245291Y0207929D02*
X0240567Y0207929D01*
X0240567Y0217929D02*
X0245291Y0217929D01*
X0245291Y0227929D02*
X0240567Y0227929D01*
X0240567Y0237929D02*
X0245291Y0237929D01*
X0245291Y0247929D02*
X0240567Y0247929D01*
X0240567Y0257929D02*
X0245291Y0257929D01*
X0245291Y0267929D02*
X0240567Y0267929D01*
X0240567Y0277929D02*
X0245291Y0277929D01*
X0245291Y0287929D02*
X0240567Y0287929D01*
D18*
X0262929Y0152929D03*
X0272929Y0152929D03*
X0282929Y0152929D03*
X0282929Y0142929D03*
X0272929Y0142929D03*
X0262929Y0142929D03*
M02*
