G75*
%MOIN*%
%OFA0B0*%
%FSLAX25Y25*%
%IPPOS*%
%LPD*%
%AMOC8*
5,1,8,0,0,1.08239X$1,22.5*
%
%ADD10C,0.07874*%
%ADD11C,1.37795*%
%ADD12R,0.02756X0.03543*%
%ADD13C,0.06000*%
%ADD14C,0.04800*%
%ADD15C,0.07400*%
%ADD16R,0.06299X0.07098*%
%ADD17C,0.06600*%
%ADD18C,0.13000*%
%ADD19C,0.04724*%
%ADD20C,0.04724*%
%ADD21R,0.07000X0.03000*%
%ADD22R,0.03000X0.07000*%
D10*
X0061039Y0033480D03*
X0131906Y0033480D03*
X0131906Y0364189D03*
X0061039Y0364189D03*
X0986236Y0275606D03*
X0986236Y0122063D03*
D11*
X0102378Y0198835D03*
D12*
G36*
X0880452Y0062989D02*
X0878503Y0061040D01*
X0876000Y0063543D01*
X0877949Y0065492D01*
X0880452Y0062989D01*
G37*
G36*
X0884071Y0066608D02*
X0882122Y0064659D01*
X0879619Y0067162D01*
X0881568Y0069111D01*
X0884071Y0066608D01*
G37*
G36*
X0892165Y0074701D02*
X0890216Y0072752D01*
X0887713Y0075255D01*
X0889662Y0077204D01*
X0892165Y0074701D01*
G37*
G36*
X0895784Y0078320D02*
X0893835Y0076371D01*
X0891332Y0078874D01*
X0893281Y0080823D01*
X0895784Y0078320D01*
G37*
G36*
X0901908Y0084444D02*
X0899959Y0082495D01*
X0897456Y0084998D01*
X0899405Y0086947D01*
X0901908Y0084444D01*
G37*
G36*
X0905527Y0088064D02*
X0903578Y0086115D01*
X0901075Y0088618D01*
X0903024Y0090567D01*
X0905527Y0088064D01*
G37*
G36*
X0918281Y0098500D02*
X0916903Y0096115D01*
X0913837Y0097886D01*
X0915215Y0100271D01*
X0918281Y0098500D01*
G37*
G36*
X0920840Y0102933D02*
X0919462Y0100548D01*
X0916396Y0102319D01*
X0917774Y0104704D01*
X0920840Y0102933D01*
G37*
G36*
X0926155Y0112280D02*
X0924777Y0109895D01*
X0921711Y0111666D01*
X0923089Y0114051D01*
X0926155Y0112280D01*
G37*
G36*
X0928714Y0116712D02*
X0927336Y0114327D01*
X0924270Y0116098D01*
X0925648Y0118483D01*
X0928714Y0116712D01*
G37*
G36*
X0934029Y0126059D02*
X0932651Y0123674D01*
X0929585Y0125445D01*
X0930963Y0127830D01*
X0934029Y0126059D01*
G37*
G36*
X0936588Y0130492D02*
X0935210Y0128107D01*
X0932144Y0129878D01*
X0933522Y0132263D01*
X0936588Y0130492D01*
G37*
G36*
X0939897Y0142451D02*
X0937236Y0143164D01*
X0938153Y0146585D01*
X0940814Y0145872D01*
X0939897Y0142451D01*
G37*
G36*
X0944841Y0141126D02*
X0942180Y0141839D01*
X0943097Y0145260D01*
X0945758Y0144547D01*
X0944841Y0141126D01*
G37*
G36*
X0946498Y0154964D02*
X0949159Y0154251D01*
X0948242Y0150830D01*
X0945581Y0151543D01*
X0946498Y0154964D01*
G37*
G36*
X0941554Y0156288D02*
X0944215Y0155575D01*
X0943298Y0152154D01*
X0940637Y0152867D01*
X0941554Y0156288D01*
G37*
G36*
X0951642Y0160533D02*
X0948981Y0161246D01*
X0949898Y0164667D01*
X0952559Y0163954D01*
X0951642Y0160533D01*
G37*
G36*
X0946698Y0161858D02*
X0944037Y0162571D01*
X0944954Y0165992D01*
X0947615Y0165279D01*
X0946698Y0161858D01*
G37*
X0950213Y0179150D03*
X0955331Y0179150D03*
X0955331Y0188992D03*
X0950213Y0188992D03*
X0950213Y0200803D03*
X0955331Y0200803D03*
X0957299Y0218520D03*
X0952181Y0218520D03*
X0952181Y0228362D03*
X0957299Y0228362D03*
X0957299Y0240173D03*
X0952181Y0240173D03*
G36*
X0944794Y0252272D02*
X0942133Y0251559D01*
X0941216Y0254980D01*
X0943877Y0255693D01*
X0944794Y0252272D01*
G37*
G36*
X0949737Y0253596D02*
X0947076Y0252883D01*
X0946159Y0256304D01*
X0948820Y0257017D01*
X0949737Y0253596D01*
G37*
G36*
X0943612Y0265812D02*
X0946273Y0266525D01*
X0947190Y0263104D01*
X0944529Y0262391D01*
X0943612Y0265812D01*
G37*
G36*
X0938668Y0264487D02*
X0941329Y0265200D01*
X0942246Y0261779D01*
X0939585Y0261066D01*
X0938668Y0264487D01*
G37*
G36*
X0939189Y0273188D02*
X0936528Y0272475D01*
X0935611Y0275896D01*
X0938272Y0276609D01*
X0939189Y0273188D01*
G37*
G36*
X0944133Y0274512D02*
X0941472Y0273799D01*
X0940555Y0277220D01*
X0943216Y0277933D01*
X0944133Y0274512D01*
G37*
G36*
X0931994Y0288668D02*
X0933372Y0286283D01*
X0930306Y0284512D01*
X0928928Y0286897D01*
X0931994Y0288668D01*
G37*
G36*
X0929435Y0293101D02*
X0930813Y0290716D01*
X0927747Y0288945D01*
X0926369Y0291330D01*
X0929435Y0293101D01*
G37*
G36*
X0924120Y0302307D02*
X0925498Y0299922D01*
X0922432Y0298151D01*
X0921054Y0300536D01*
X0924120Y0302307D01*
G37*
G36*
X0921561Y0306739D02*
X0922939Y0304354D01*
X0919873Y0302583D01*
X0918495Y0304968D01*
X0921561Y0306739D01*
G37*
G36*
X0917230Y0314240D02*
X0918608Y0311855D01*
X0915542Y0310084D01*
X0914164Y0312469D01*
X0917230Y0314240D01*
G37*
G36*
X0914671Y0318672D02*
X0916049Y0316287D01*
X0912983Y0314516D01*
X0911605Y0316901D01*
X0914671Y0318672D01*
G37*
G36*
X0902425Y0322550D02*
X0904374Y0320601D01*
X0901871Y0318098D01*
X0899922Y0320047D01*
X0902425Y0322550D01*
G37*
G36*
X0898806Y0326169D02*
X0900755Y0324220D01*
X0898252Y0321717D01*
X0896303Y0323666D01*
X0898806Y0326169D01*
G37*
G36*
X0892443Y0332533D02*
X0894392Y0330584D01*
X0891889Y0328081D01*
X0889940Y0330030D01*
X0892443Y0332533D01*
G37*
G36*
X0888824Y0336152D02*
X0890773Y0334203D01*
X0888270Y0331700D01*
X0886321Y0333649D01*
X0888824Y0336152D01*
G37*
G36*
X0883276Y0341700D02*
X0885225Y0339751D01*
X0882722Y0337248D01*
X0880773Y0339197D01*
X0883276Y0341700D01*
G37*
G36*
X0879657Y0345319D02*
X0881606Y0343370D01*
X0879103Y0340867D01*
X0877154Y0342816D01*
X0879657Y0345319D01*
G37*
D13*
X0246236Y0351189D02*
X0246236Y0357189D01*
X0226236Y0357189D02*
X0226236Y0351189D01*
D14*
X0256238Y0127535D02*
X0261038Y0127535D01*
X0286238Y0127535D02*
X0291038Y0127535D01*
X0291038Y0117535D02*
X0286238Y0117535D01*
X0286238Y0107535D02*
X0291038Y0107535D01*
X0291038Y0097535D02*
X0286238Y0097535D01*
X0286238Y0087535D02*
X0291038Y0087535D01*
X0291038Y0077535D02*
X0286238Y0077535D01*
X0261038Y0077535D02*
X0256238Y0077535D01*
X0256238Y0067535D02*
X0261038Y0067535D01*
X0261038Y0057535D02*
X0256238Y0057535D01*
X0286238Y0057535D02*
X0291038Y0057535D01*
X0291038Y0067535D02*
X0286238Y0067535D01*
X0261038Y0087535D02*
X0256238Y0087535D01*
X0256238Y0097535D02*
X0261038Y0097535D01*
X0261038Y0107535D02*
X0256238Y0107535D01*
X0256238Y0117535D02*
X0261038Y0117535D01*
D15*
X0230331Y0098598D03*
X0230331Y0088598D03*
X0234583Y0057102D03*
X0224583Y0057102D03*
X0214583Y0057102D03*
X0313008Y0088441D03*
X0313008Y0098441D03*
X0228520Y0305134D03*
X0218520Y0305134D03*
X0232299Y0328756D03*
X0242299Y0328756D03*
D16*
X0265362Y0287732D03*
X0276559Y0287732D03*
D17*
X0279064Y0323087D02*
X0272464Y0323087D01*
X0272464Y0333087D02*
X0279064Y0333087D01*
X0279064Y0343087D02*
X0272464Y0343087D01*
D18*
X0344764Y0333087D03*
D19*
X0305291Y0287929D02*
X0300567Y0287929D01*
X0300567Y0277929D02*
X0305291Y0277929D01*
X0305291Y0267929D02*
X0300567Y0267929D01*
X0300567Y0257929D02*
X0305291Y0257929D01*
X0305291Y0247929D02*
X0300567Y0247929D01*
X0300567Y0237929D02*
X0305291Y0237929D01*
X0305291Y0227929D02*
X0300567Y0227929D01*
X0300567Y0217929D02*
X0305291Y0217929D01*
X0305291Y0207929D02*
X0300567Y0207929D01*
X0300567Y0197929D02*
X0305291Y0197929D01*
X0305291Y0187929D02*
X0300567Y0187929D01*
X0300567Y0177929D02*
X0305291Y0177929D01*
X0305291Y0167929D02*
X0300567Y0167929D01*
X0300567Y0157929D02*
X0305291Y0157929D01*
X0305291Y0147929D02*
X0300567Y0147929D01*
X0245291Y0147929D02*
X0240567Y0147929D01*
X0240567Y0157929D02*
X0245291Y0157929D01*
X0245291Y0167929D02*
X0240567Y0167929D01*
X0240567Y0177929D02*
X0245291Y0177929D01*
X0245291Y0187929D02*
X0240567Y0187929D01*
X0240567Y0197929D02*
X0245291Y0197929D01*
X0245291Y0207929D02*
X0240567Y0207929D01*
X0240567Y0217929D02*
X0245291Y0217929D01*
X0245291Y0227929D02*
X0240567Y0227929D01*
X0240567Y0237929D02*
X0245291Y0237929D01*
X0245291Y0247929D02*
X0240567Y0247929D01*
X0240567Y0257929D02*
X0245291Y0257929D01*
X0245291Y0267929D02*
X0240567Y0267929D01*
X0240567Y0277929D02*
X0245291Y0277929D01*
X0245291Y0287929D02*
X0240567Y0287929D01*
D20*
X0262929Y0152929D03*
X0272929Y0152929D03*
X0282929Y0152929D03*
X0282929Y0142929D03*
X0272929Y0142929D03*
X0262929Y0142929D03*
D21*
G36*
X0890186Y0062672D02*
X0895135Y0067621D01*
X0897256Y0065500D01*
X0892307Y0060551D01*
X0890186Y0062672D01*
G37*
G36*
X0895197Y0057661D02*
X0900146Y0062610D01*
X0902267Y0060489D01*
X0897318Y0055540D01*
X0895197Y0057661D01*
G37*
G36*
X0905926Y0068390D02*
X0910875Y0073339D01*
X0912996Y0071218D01*
X0908047Y0066269D01*
X0905926Y0068390D01*
G37*
G36*
X0900915Y0073401D02*
X0905864Y0078350D01*
X0907985Y0076229D01*
X0903036Y0071280D01*
X0900915Y0073401D01*
G37*
G36*
X0935218Y0095692D02*
X0938717Y0101754D01*
X0941316Y0100254D01*
X0937817Y0094192D01*
X0935218Y0095692D01*
G37*
G36*
X0929081Y0099235D02*
X0932580Y0105297D01*
X0935179Y0103797D01*
X0931680Y0097735D01*
X0929081Y0099235D01*
G37*
G36*
X0942805Y0108832D02*
X0946304Y0114894D01*
X0948903Y0113394D01*
X0945404Y0107332D01*
X0942805Y0108832D01*
G37*
G36*
X0936668Y0112376D02*
X0940167Y0118438D01*
X0942766Y0116938D01*
X0939267Y0110876D01*
X0936668Y0112376D01*
G37*
G36*
X0959751Y0134448D02*
X0961562Y0141208D01*
X0964459Y0140432D01*
X0962648Y0133672D01*
X0959751Y0134448D01*
G37*
G36*
X0952906Y0136282D02*
X0954717Y0143042D01*
X0957614Y0142266D01*
X0955803Y0135506D01*
X0952906Y0136282D01*
G37*
G36*
X0956833Y0150938D02*
X0958644Y0157698D01*
X0961541Y0156922D01*
X0959730Y0150162D01*
X0956833Y0150938D01*
G37*
G36*
X0963678Y0149104D02*
X0965489Y0155864D01*
X0968386Y0155088D01*
X0966575Y0148328D01*
X0963678Y0149104D01*
G37*
G36*
X0958644Y0251782D02*
X0956833Y0258542D01*
X0959730Y0259318D01*
X0961541Y0252558D01*
X0958644Y0251782D01*
G37*
G36*
X0965489Y0253616D02*
X0963678Y0260376D01*
X0966575Y0261152D01*
X0968386Y0254392D01*
X0965489Y0253616D01*
G37*
G36*
X0954717Y0266438D02*
X0952906Y0273198D01*
X0955803Y0273974D01*
X0957614Y0267214D01*
X0954717Y0266438D01*
G37*
G36*
X0961562Y0268272D02*
X0959751Y0275032D01*
X0962648Y0275808D01*
X0964459Y0269048D01*
X0961562Y0268272D01*
G37*
G36*
X0940167Y0291042D02*
X0936668Y0297104D01*
X0939267Y0298604D01*
X0942766Y0292542D01*
X0940167Y0291042D01*
G37*
G36*
X0946304Y0294586D02*
X0942805Y0300648D01*
X0945404Y0302148D01*
X0948903Y0296086D01*
X0946304Y0294586D01*
G37*
G36*
X0932580Y0304183D02*
X0929081Y0310245D01*
X0931680Y0311745D01*
X0935179Y0305683D01*
X0932580Y0304183D01*
G37*
G36*
X0938717Y0307726D02*
X0935218Y0313788D01*
X0937817Y0315288D01*
X0941316Y0309226D01*
X0938717Y0307726D01*
G37*
G36*
X0905864Y0331130D02*
X0900915Y0336079D01*
X0903036Y0338200D01*
X0907985Y0333251D01*
X0905864Y0331130D01*
G37*
G36*
X0910875Y0336141D02*
X0905926Y0341090D01*
X0908047Y0343211D01*
X0912996Y0338262D01*
X0910875Y0336141D01*
G37*
G36*
X0895135Y0341859D02*
X0890186Y0346808D01*
X0892307Y0348929D01*
X0897256Y0343980D01*
X0895135Y0341859D01*
G37*
G36*
X0900146Y0346870D02*
X0895197Y0351819D01*
X0897318Y0353940D01*
X0902267Y0348991D01*
X0900146Y0346870D01*
G37*
D22*
X0966945Y0232012D03*
X0974031Y0232012D03*
X0974031Y0216839D03*
X0966945Y0216839D03*
X0966945Y0192642D03*
X0974031Y0192642D03*
X0974031Y0177469D03*
X0966945Y0177469D03*
M02*
