G75*
%MOIN*%
%OFA0B0*%
%FSLAX25Y25*%
%IPPOS*%
%LPD*%
%AMOC8*
5,1,8,0,0,1.08239X$1,22.5*
%
%ADD10C,0.00600*%
%ADD11C,0.06000*%
%ADD12C,0.04800*%
%ADD13C,0.07400*%
%ADD14C,0.06600*%
%ADD15C,0.04724*%
%ADD16C,0.04724*%
%ADD17C,0.02953*%
%ADD18C,0.02362*%
%ADD19C,0.01969*%
D10*
X0184255Y0183387D02*
X0190661Y0183387D01*
X0190661Y0187657D01*
X0187458Y0185522D02*
X0187458Y0183387D01*
X0184255Y0183387D02*
X0184255Y0187657D01*
X0184255Y0189832D02*
X0184255Y0194102D01*
X0184255Y0191967D02*
X0190661Y0191967D01*
X0190661Y0202723D02*
X0184255Y0202723D01*
X0190661Y0202723D02*
X0190661Y0206993D01*
X0190661Y0209169D02*
X0184255Y0209169D01*
X0184255Y0213439D01*
X0187458Y0211304D02*
X0187458Y0209169D01*
X0185323Y0222060D02*
X0184255Y0223127D01*
X0184255Y0225262D01*
X0185323Y0226330D01*
X0186390Y0226330D01*
X0190661Y0222060D01*
X0190661Y0226330D01*
X0189593Y0228505D02*
X0185323Y0232775D01*
X0189593Y0232775D01*
X0190661Y0231708D01*
X0190661Y0229573D01*
X0189593Y0228505D01*
X0185323Y0228505D01*
X0184255Y0229573D01*
X0184255Y0231708D01*
X0185323Y0232775D01*
X0186390Y0234951D02*
X0184255Y0237086D01*
X0190661Y0237086D01*
X0190661Y0234951D02*
X0190661Y0239221D01*
X0190661Y0241396D02*
X0189593Y0241396D01*
X0185323Y0245666D01*
X0184255Y0245666D01*
X0184255Y0241396D01*
D11*
X0226236Y0351189D02*
X0226236Y0357189D01*
X0246236Y0357189D02*
X0246236Y0351189D01*
D12*
X0256238Y0127535D02*
X0261038Y0127535D01*
X0286238Y0127535D02*
X0291038Y0127535D01*
X0291038Y0117535D02*
X0286238Y0117535D01*
X0286238Y0107535D02*
X0291038Y0107535D01*
X0291038Y0097535D02*
X0286238Y0097535D01*
X0286238Y0087535D02*
X0291038Y0087535D01*
X0291038Y0077535D02*
X0286238Y0077535D01*
X0261038Y0077535D02*
X0256238Y0077535D01*
X0256238Y0067535D02*
X0261038Y0067535D01*
X0261038Y0057535D02*
X0256238Y0057535D01*
X0286238Y0057535D02*
X0291038Y0057535D01*
X0291038Y0067535D02*
X0286238Y0067535D01*
X0261038Y0087535D02*
X0256238Y0087535D01*
X0256238Y0097535D02*
X0261038Y0097535D01*
X0261038Y0107535D02*
X0256238Y0107535D01*
X0256238Y0117535D02*
X0261038Y0117535D01*
D13*
X0230331Y0098598D03*
X0230331Y0088598D03*
X0234583Y0057102D03*
X0224583Y0057102D03*
X0214583Y0057102D03*
X0313008Y0088441D03*
X0313008Y0098441D03*
X0228520Y0305134D03*
X0218520Y0305134D03*
X0232299Y0328756D03*
X0242299Y0328756D03*
D14*
X0272464Y0333087D02*
X0279064Y0333087D01*
X0279064Y0323087D02*
X0272464Y0323087D01*
X0272464Y0343087D02*
X0279064Y0343087D01*
D15*
X0300567Y0287929D02*
X0305291Y0287929D01*
X0305291Y0277929D02*
X0300567Y0277929D01*
X0300567Y0267929D02*
X0305291Y0267929D01*
X0305291Y0257929D02*
X0300567Y0257929D01*
X0300567Y0247929D02*
X0305291Y0247929D01*
X0305291Y0237929D02*
X0300567Y0237929D01*
X0300567Y0227929D02*
X0305291Y0227929D01*
X0305291Y0217929D02*
X0300567Y0217929D01*
X0300567Y0207929D02*
X0305291Y0207929D01*
X0305291Y0197929D02*
X0300567Y0197929D01*
X0300567Y0187929D02*
X0305291Y0187929D01*
X0305291Y0177929D02*
X0300567Y0177929D01*
X0300567Y0167929D02*
X0305291Y0167929D01*
X0305291Y0157929D02*
X0300567Y0157929D01*
X0300567Y0147929D02*
X0305291Y0147929D01*
X0245291Y0147929D02*
X0240567Y0147929D01*
X0240567Y0157929D02*
X0245291Y0157929D01*
X0245291Y0167929D02*
X0240567Y0167929D01*
X0240567Y0177929D02*
X0245291Y0177929D01*
X0245291Y0187929D02*
X0240567Y0187929D01*
X0240567Y0197929D02*
X0245291Y0197929D01*
X0245291Y0207929D02*
X0240567Y0207929D01*
X0240567Y0217929D02*
X0245291Y0217929D01*
X0245291Y0227929D02*
X0240567Y0227929D01*
X0240567Y0237929D02*
X0245291Y0237929D01*
X0245291Y0247929D02*
X0240567Y0247929D01*
X0240567Y0257929D02*
X0245291Y0257929D01*
X0245291Y0267929D02*
X0240567Y0267929D01*
X0240567Y0277929D02*
X0245291Y0277929D01*
X0245291Y0287929D02*
X0240567Y0287929D01*
D16*
X0262929Y0152929D03*
X0272929Y0152929D03*
X0282929Y0152929D03*
X0282929Y0142929D03*
X0272929Y0142929D03*
X0262929Y0142929D03*
D17*
X0275606Y0135843D02*
X0281512Y0129937D01*
X0291354Y0139780D01*
X0291354Y0177181D01*
X0302181Y0177181D01*
X0302929Y0177929D01*
X0291354Y0177181D02*
X0281512Y0177181D01*
X0281512Y0299228D01*
X0283480Y0301197D01*
X0309071Y0301197D01*
X0399622Y0210646D01*
X0913402Y0210646D01*
X0322850Y0202772D02*
X0322850Y0076787D01*
X0313598Y0067535D01*
X0288638Y0067535D01*
X0273638Y0051197D02*
X0273638Y0097535D01*
X0288638Y0097535D01*
X0273638Y0097535D02*
X0273638Y0122063D01*
X0281512Y0129937D01*
X0275606Y0135843D02*
X0240173Y0135843D01*
X0230331Y0145685D01*
X0230331Y0151591D01*
X0236669Y0157929D01*
X0242929Y0157929D01*
X0242929Y0147929D02*
X0242929Y0147654D01*
X0253953Y0147654D01*
X0253953Y0295291D01*
X0218520Y0295291D01*
X0218520Y0305134D01*
X0275764Y0323087D02*
X0281512Y0317339D01*
X0281512Y0299228D01*
X0242496Y0228362D02*
X0226394Y0228362D01*
X0214583Y0216551D01*
X0214583Y0057102D01*
X0224583Y0057102D02*
X0224583Y0051039D01*
X0230331Y0045291D01*
X0267732Y0045291D01*
X0273638Y0051197D01*
X0248047Y0074819D02*
X0234583Y0061354D01*
X0234583Y0057102D01*
X0248047Y0074819D02*
X0248047Y0106315D01*
X0224425Y0129937D01*
X0224425Y0169307D01*
X0232299Y0177181D01*
X0242181Y0177181D01*
X0242929Y0177929D01*
X0302929Y0207929D02*
X0303677Y0208677D01*
X0316945Y0208677D01*
X0322850Y0202772D01*
X0242929Y0227929D02*
X0242496Y0228362D01*
D18*
X0877969Y0155528D03*
X0935055Y0173244D03*
X0940961Y0200803D03*
X0913402Y0210646D03*
X0938992Y0236236D03*
X0929150Y0267732D03*
X0909465Y0301197D03*
X0891748Y0311039D03*
X0925213Y0129937D03*
X0893717Y0090567D03*
D19*
X0001984Y0001984D02*
X0001984Y0395685D01*
X0344504Y0395685D01*
X0403559Y0336630D01*
X0403559Y0271669D01*
X0842535Y0271669D01*
X0864189Y0293323D01*
X0864189Y0364189D01*
X0919307Y0364189D01*
X1000016Y0283480D01*
X1000016Y0114189D01*
X0919307Y0033480D01*
X0864189Y0033480D01*
X0864189Y0104346D01*
X0842535Y0126000D01*
X0403559Y0126000D01*
X0403559Y0061039D01*
X0344504Y0001984D01*
X0001984Y0001984D01*
X0877969Y0155528D02*
X0883874Y0155528D01*
X0909465Y0129937D01*
X0915370Y0135843D01*
X0925213Y0135843D01*
X0925213Y0179150D01*
X0927181Y0181118D01*
X0935055Y0181118D01*
X0935055Y0208677D01*
X0937024Y0210646D01*
X0931118Y0216551D01*
X0931118Y0234268D01*
X0936039Y0239189D01*
X0925213Y0250016D01*
X0925213Y0267732D01*
X0921276Y0267732D01*
X0903559Y0285449D01*
X0903559Y0301197D01*
X0906512Y0304150D01*
X0909465Y0301197D01*
X0906512Y0304150D02*
X0899622Y0311039D01*
X0891748Y0311039D01*
X0925213Y0267732D02*
X0929150Y0267732D01*
X0936039Y0239189D02*
X0938992Y0236236D01*
X0937024Y0210646D02*
X0940961Y0206709D01*
X0940961Y0200803D01*
X0935055Y0181118D02*
X0935055Y0173244D01*
X0925213Y0135843D02*
X0925213Y0129937D01*
X0909465Y0129937D02*
X0893717Y0114189D01*
X0893717Y0090567D01*
M02*
